<?xml version="1.0" encoding="UTF-8"?>
<svg width="22px" height="24px" viewBox="0 0 22 24" version="1.1" xmlns="http://www.w3.org/2000/svg" xmlns:xlink="http://www.w3.org/1999/xlink">
    <title>career</title>
    <g id="Page-1" stroke="none" stroke-width="1" fill="none" fill-rule="evenodd">
        <path d="M10.999975,11.9999714 C14.3140387,11.9999714 16.9999607,9.31404945 16.9999607,5.99998569 C16.9999607,2.68592194 14.3140387,0 10.999975,0 C7.68591121,0 4.99998927,2.68592194 4.99998927,5.99998569 C4.99998927,9.31404945 7.68591121,11.9999714 10.999975,11.9999714 Z M10.999975,10.499975 C8.52027507,10.499975 6.49998569,8.47968559 6.49998569,5.99998569 C6.49998569,3.5202858 8.52027507,1.49999642 10.999975,1.49999642 C13.4796749,1.49999642 15.4999642,3.5202858 15.4999642,5.99998569 C15.4999642,8.47968559 13.4796749,10.499975 10.999975,10.499975 Z M19.2499553,23.9999428 C20.4921398,23.9999428 21.4999499,22.9921327 21.4999499,21.7499481 L21.4999499,20.5499693 C21.4999499,17.1093342 18.7390007,14.3202784 15.3077955,14.2593502 L13.4468533,20.7187006 L11.8577763,15.9515153 L13.0296485,14.7796431 C13.5031123,14.306225 13.165604,13.4999678 12.4999714,13.4999678 L9.49997854,13.4999678 C8.8296768,13.4999678 8.49683762,14.306225 8.97030146,14.7796431 L10.1421737,15.9515153 L8.55309664,20.7187006 L6.69215443,14.2640193 C3.26094923,14.3202784 0.5,17.1093342 0.5,20.5499693 L0.5,21.7499481 C0.5,22.9921327 1.5078101,23.9999428 2.74999464,23.9999428 L19.2499553,23.9999428 Z M7.50779579,22.4999464 L2.74999464,22.4999464 C2.33750477,22.4999464 1.99999642,22.162438 1.99999642,21.7499481 L1.99999642,20.5499693 C1.99999642,18.3374654 3.5374836,16.4484166 5.60469364,15.9140246 L7.50779579,22.4999464 Z M19.2499553,22.4999464 L14.4921541,22.4999464 L16.3905871,15.9140246 C18.4577514,16.4484166 19.9952843,18.3374654 19.9952843,20.5499693 L19.9952843,21.7499481 L19.9999535,21.7499481 C19.9999535,22.162438 19.6624452,22.4999464 19.2499553,22.4999464 Z M12.4577657,22.4999464 L9.54218425,22.4999464 L10.999975,18.1218135 L12.4577657,22.4999464 Z" id="career" fill="#464547" fill-rule="nonzero"></path>
    </g>
</svg>