<?xml version="1.0" encoding="UTF-8"?>
<svg width="22px" height="24px" viewBox="0 0 22 24" version="1.1" xmlns="http://www.w3.org/2000/svg" xmlns:xlink="http://www.w3.org/1999/xlink">
    <title>info-desk</title>
    <g id="Page-1" stroke="none" stroke-width="1" fill="none" fill-rule="evenodd">
        <path d="M14.749966,14.9999642 C17.644353,14.9963479 19.9963372,12.6443638 19.9999535,9.74997675 L19.9999535,8.99997854 C19.9999535,4.03687087 15.9630826,0 10.999975,0 C6.03686729,0 1.99999642,4.03687087 1.99999642,8.99997854 L1.99999642,9.74997675 C1.99999642,10.1639772 2.33599416,10.499975 2.74999464,10.499975 C3.16399511,10.499975 3.49999642,10.1639772 3.49999642,9.74997675 L3.49999642,8.99997854 C3.49999642,4.86468872 6.86468514,1.5 10.999975,1.5 C15.1352648,1.5 18.4999571,4.86468872 18.4999571,8.99997854 L18.4999571,9.74997675 C18.4976225,11.8176446 16.8176338,13.4976332 14.749966,13.4999678 L13.2499696,13.4999678 C13.2499696,12.6719669 12.5779741,11.9999714 11.7499732,11.9999714 L10.2499768,11.9999714 C9.4219758,11.9999714 8.74998033,12.6719669 8.74998033,13.4999678 C8.74998033,14.3279688 9.4219758,14.9999642 10.2499768,14.9999642 L14.749966,14.9999642 Z M7.26637181,13.6626109 C7.26357946,13.6077709 7.24998391,13.5557691 7.24998391,13.4999678 C7.25282203,13.054519 7.44036736,12.3825236 7.66856201,11.9999714 C7.02243013,11.2917669 6.49801732,9.93894115 6.49801732,8.98024898 C6.49801732,6.50709508 8.5051689,4.49994349 10.9783228,4.49994349 C10.9842737,4.49994349 10.9939783,4.49994349 10.999975,4.49999285 C11.0055139,4.49994349 11.0144403,4.49994349 11.0199792,4.49994349 C13.4928127,4.49994349 15.4997811,6.50691198 15.4997811,8.97979121 C15.4997811,9.93385998 14.9797171,11.2818792 14.3388952,11.9887104 C14.3388952,11.9929218 14.3449835,11.99576 14.3473181,11.9999714 L14.749966,11.9999714 C15.4364268,11.9984608 16.2879567,11.5242645 16.6507336,10.9415328 C16.859336,10.3293669 16.9999607,9.68341807 16.9999607,8.99997854 C16.9999607,5.68797472 14.3119788,2.99999285 10.999975,2.99999285 C7.68797114,2.99999285 4.99998927,5.68797472 4.99998927,8.99997854 C4.99998927,10.8946579 5.89528133,12.56247 7.26637181,13.6626109 Z M19.9999535,23.9999428 C20.8279545,23.9999428 21.4999499,23.3279473 21.4999499,22.4999464 C21.4999499,19.1879425 18.8119681,16.4999607 15.4999642,16.4999607 L15.2796431,16.4999607 C14.7096371,16.4999607 14.1546458,16.6359161 13.6155846,16.8187007 C12.9131021,17.0570119 11.7408637,17.2504166 10.9990594,17.2504166 C10.2572094,17.2504166 9.08497099,17.0570119 8.38248853,16.8187007 C7.84434284,16.6359161 7.29077055,16.5008762 6.72218365,16.5008762 L6.49998569,16.5008762 C3.18853119,16.5008762 0.500503539,19.1884918 0.5,22.4999464 C0.5,23.3279473 1.17199547,23.9999428 2,23.9999428 L19.9999535,23.9999428 Z M19.9999535,22.4990308 L1.99999642,22.4999464 C2.00255989,20.0185527 4.01859207,18.0025206 6.49998569,17.9999571 L6.72218365,17.9999571 C7.04655422,17.9999571 7.42155332,18.0758999 7.90156316,18.2385429 C8.73318044,18.5205705 10.1208877,18.7494975 10.9990594,18.7494975 C11.8771854,18.7494975 13.2648927,18.5205705 14.0965099,18.2385429 C14.5798157,18.0749386 14.9557303,17.9990416 15.2796431,17.9990416 L15.4999642,17.9990416 C17.9813579,18.001605 19.99739,20.0175914 19.9999535,22.4990308 Z" id="info-desk" fill="#464547" fill-rule="nonzero"></path>
    </g>
</svg>