<?xml version="1.0" encoding="UTF-8"?>
<svg width="30px" height="22px" viewBox="0 0 30 22" version="1.1" xmlns="http://www.w3.org/2000/svg" xmlns:xlink="http://www.w3.org/1999/xlink">
    <title>meet-uni</title>
    <g id="Page-1" stroke="none" stroke-width="1" fill="none" fill-rule="evenodd">
        <path d="M14.9999642,10.9999714 C17.9015381,10.9999714 20.2499517,8.6515578 20.2499517,5.74998391 C20.2499517,2.84841001 17.9015381,0.499996424 14.9999642,0.499996424 C12.0983903,0.499996424 9.74997675,2.84841001 9.74997675,5.74998391 C9.74997675,8.6515578 12.0983903,10.9999714 14.9999642,10.9999714 Z M25.4999392,9.49997497 C27.5718184,9.49997497 29.2499303,7.82186312 29.2499303,5.74998391 C29.2499303,3.67810469 27.5718184,1.99999285 25.4999392,1.99999285 C23.42806,1.99999285 21.7499481,3.67810469 21.7499481,5.74998391 C21.7499481,7.82186312 23.42806,9.49997497 25.4999392,9.49997497 Z M14.9999642,9.49997497 C12.9328,9.49997497 11.2499732,7.81714817 11.2499732,5.74998391 C11.2499732,3.68281965 12.9328,1.99999285 14.9999642,1.99999285 C17.0671285,1.99999285 18.7499553,3.68281965 18.7499553,5.74998391 C18.7499553,7.81714817 17.0671285,9.49997497 14.9999642,9.49997497 Z M4.49998927,9.49997497 C6.57186849,9.49997497 8.24998033,7.82186312 8.24998033,5.74998391 C8.24998033,3.67810469 6.57186849,1.99999285 4.49998927,1.99999285 C2.42811006,1.99999285 0.749998212,3.67810469 0.749998212,5.74998391 C0.749998212,7.82186312 2.42811006,9.49997497 4.49998927,9.49997497 Z M25.4999392,7.99997854 C24.2577547,7.99997854 23.2499446,6.99216845 23.2499446,5.74998391 C23.2499446,4.50779937 24.2577547,3.49998927 25.4999392,3.49998927 C26.7421237,3.49998927 27.7499338,4.50779937 27.7499338,5.74998391 C27.7499338,6.99216845 26.7421237,7.99997854 25.4999392,7.99997854 Z M4.49998927,7.99997854 C3.25780473,7.99997854 2.24999464,6.99216845 2.24999464,5.74998391 C2.24999464,4.50779937 3.25780473,3.49998927 4.49998927,3.49998927 C5.74217381,3.49998927 6.74998391,4.50779937 6.74998391,5.74998391 C6.74998391,6.99216845 5.74217381,7.99997854 4.49998927,7.99997854 Z M29.2499303,15.4999607 C29.6624201,15.4999607 29.9999285,15.1624523 29.9999285,14.7499624 C29.9999285,12.6827982 28.4015131,10.9999714 26.437437,10.9999714 L24.5624414,10.9999714 C23.849934,10.9999714 23.1890164,11.2249617 22.6359018,11.6046758 C23.0764983,11.9046476 23.4749349,12.2562092 23.8264965,12.6546458 C24.0562018,12.5562268 24.3046296,12.4999714 24.5624414,12.4999714 L26.437437,12.4999714 C27.5718184,12.4999714 28.4999321,13.5077779 28.4999321,14.7499624 C28.4999321,15.1624523 28.8374404,15.4999607 29.2499303,15.4999607 Z M0.749998212,15.4999607 C1.16248807,15.4999607 1.5,15.1624523 1.5,14.7499624 C1.5,13.5077779 2.42811006,12.4999714 3.56249151,12.4999714 L5.43748704,12.4999714 C5.69529892,12.4999714 5.94372667,12.5562268 6.17343194,12.6546458 C6.5249936,12.2562092 6.92809933,11.9046476 7.36402663,11.6046758 C6.80624293,11.2249617 6.14527954,10.9999714 5.43748704,10.9999714 L3.56249151,10.9999714 C1.59841538,10.9999714 0,12.6827982 0,14.7499624 C0,15.1624523 0.337508351,15.4999607 0.749998212,15.4999607 Z M21.7499481,21.4999464 C22.9921327,21.4999464 23.9999428,20.4921363 23.9999428,19.2499517 L23.9999428,17.1499659 C23.9999428,16.0343527 23.6624344,14.9983902 23.0812133,14.1359197 C22.1108939,12.6968515 20.4562195,11.9374692 18.7546245,11.9374692 C17.1890307,11.9374692 16.7999783,12.4999678 14.9999642,12.4999678 C13.1999502,12.4999678 12.8108978,11.9374692 11.245304,11.9374692 C9.54370894,11.9374692 7.88903454,12.6968515 6.91871519,14.1359197 C6.33749405,14.9983902 5.99998569,16.0343527 5.99998569,17.1499659 L5.99998569,19.2499517 C5.99998569,20.4921363 7.00779579,21.4999464 8.24998033,21.4999464 L21.7499481,21.4999464 Z M21.7499481,19.9999499 L8.24998033,19.9999499 C7.83749047,19.9999499 7.49998212,19.6624416 7.49998212,19.2499517 L7.49998212,17.1499659 C7.49998212,16.3718153 7.72968738,15.6171479 8.16089973,14.9749528 C8.80780981,14.0140175 9.96091375,13.4374656 11.240589,13.4374656 C12.5249793,13.4374656 12.984344,13.9999642 14.9999642,13.9999642 C17.0155844,13.9999642 17.4749492,13.4374656 18.7546245,13.4374656 C20.0343455,13.4374656 21.1874495,14.0140175 21.8343138,14.9749528 C22.2655719,15.6171479 22.4952772,16.3718153 22.4952772,17.1499659 L22.4952772,19.2499517 L22.4999464,19.2499517 C22.4999464,19.6624416 22.162438,19.9999499 21.7499481,19.9999499 Z" id="meet-uni" fill="#464547" fill-rule="nonzero"></path>
    </g>
</svg>