<svg width="150" height="88" xmlns="http://www.w3.org/2000/svg"><g fill="none" fill-rule="evenodd"><path d="M0 83.961C0 47.531 33.396 18 74.592 18c41.197 0 74.592 29.532 74.592 65.961" fill="#F5F5F5"/><path d="M71.007 85.845H38.765a.075.075 0 0 1-.075-.075v-.15c0-.042.034-.076.075-.076h32.242c.041 0 .075.034.075.075v.151a.075.075 0 0 1-.075.075m16.466 2.139H61.77a.075.075 0 0 1-.075-.075v-.151c0-.042.034-.076.075-.076h25.703c.04 0 .075.034.075.076v.15a.075.075 0 0 1-.075.076m26.377-2.139H76.303a.075.075 0 0 1-.075-.075v-.15c0-.042.034-.076.075-.076h37.547c.041 0 .075.034.075.075v.151a.075.075 0 0 1-.075.075M92.636 20.666a.148.148 0 0 1-.103-.041 1.363 1.363 0 0 0-.302-.22 1.454 1.454 0 0 0-.887-.147.15.15 0 1 1-.04-.299 1.753 1.753 0 0 1 1.068.18c.092.05.181.109.265.176.078-.063.163-.12.252-.168a1.799 1.799 0 0 1 1.09-.195.15.15 0 0 1-.037.3 1.507 1.507 0 0 0-.912.16 1.4 1.4 0 0 0-.292.213.15.15 0 0 1-.102.041M55.249 28.87a.148.148 0 0 1-.103-.041 1.367 1.367 0 0 0-.3-.22 1.454 1.454 0 0 0-.888-.146.15.15 0 1 1-.04-.299 1.752 1.752 0 0 1 1.067.18c.093.05.182.108.265.176.079-.064.163-.12.252-.17a1.8 1.8 0 0 1 1.09-.193.15.15 0 0 1 .13.168.15.15 0 0 1-.166.13 1.507 1.507 0 0 0-.912.16c-.105.059-.204.13-.293.214a.148.148 0 0 1-.102.041m-18.79-4.004h-5.776a.126.126 0 0 1-.125-.126v-.046c0-.069.056-.126.125-.126h5.776c.068 0 .124.057.124.126v.046c0 .07-.056.126-.124.126m14.713-1.715c.01 0 .021 0 .032-.003a.15.15 0 0 0 .114-.18c-.236-1.084-1.337-1.9-2.562-1.9h-.008c-1.127.002-1.856.702-2.086.958a1.773 1.773 0 0 0-1.122-.07c-.473.134-.827.477-.936.893l-1.76-.001h-.001a.15.15 0 0 0-.15.15c0 .084.067.15.15.151l1.884.002a.15.15 0 0 0 .148-.131c.047-.355.34-.659.746-.775.498-.142.934.057 1.016.099a.149.149 0 0 0 .185-.044c.03-.037.722-.928 1.927-.93h.007c1.088 0 2.063.713 2.27 1.663a.15.15 0 0 0 .146.118m-3.246 1.566h-7.85a.126.126 0 0 1-.125-.126v-.046c0-.069.056-.126.125-.126h7.85c.069 0 .125.057.125.126v.046c0 .07-.056.126-.125.126M39.564 23.3h-4.25a.126.126 0 0 1-.126-.125v-.047c0-.069.056-.126.125-.126h4.251c.069 0 .125.057.125.126v.047a.125.125 0 0 1-.125.125m82.624 3.334h-2.156a.15.15 0 0 1-.149-.146c-.025-.82-.489-1.54-1.184-1.838-.728-.312-1.414-.034-1.607.06a.148.148 0 0 1-.207-.094c-.347-1.194-1.337-2.053-2.464-2.137-1.431-.108-2.774 1.065-2.993 2.615a.149.149 0 0 1-.227.106c-.114-.072-.724-.42-1.416-.173-.584.21-1.006.769-1.076 1.426a.15.15 0 0 1-.148.134l-5.197-.006a.15.15 0 0 1-.149-.15.15.15 0 0 1 .15-.151l5.067.006c.121-.713.602-1.31 1.253-1.543.625-.224 1.19-.04 1.483.099.329-1.598 1.753-2.777 3.275-2.664 1.2.09 2.255.963 2.676 2.192.331-.127.995-.299 1.697.002.76.326 1.281 1.085 1.357 1.96h2.015a.15.15 0 0 1 .149.151.15.15 0 0 1-.15.151m-5.786 1.8h-4.251a.126.126 0 0 1-.126-.126v-.046c0-.07.057-.126.126-.126h4.25c.07 0 .125.057.125.126v.046c0 .07-.056.126-.124.126m9.176 0h-7.85a.126.126 0 0 1-.125-.126v-.046c0-.07.057-.126.126-.126h7.85c.068 0 .125.057.125.126v.046c0 .07-.057.126-.126.126m-21.69-3.761h-4.252a.125.125 0 0 1-.124-.126V24.5c0-.07.055-.126.124-.126h4.252c.068 0 .124.057.124.126v.046c0 .07-.056.126-.124.126" fill="#4D4D4D"/><path fill="#FFF" d="M34.24 83.47h81.928V45.584H34.24z"/><path d="M34.389 83.319h81.63V45.736h-81.63v37.583zm81.779.301H34.24a.15.15 0 0 1-.15-.15V45.584a.15.15 0 0 1 .15-.15h81.928a.15.15 0 0 1 .15.15V83.47a.15.15 0 0 1-.15.151z" fill="#4D4D4D"/><path fill="#FFF" d="M51.809 83.47H98.74v-1.473H51.81z"/><path d="M51.958 83.319h46.634v-1.172H51.958v1.172zm46.783.3H51.81a.15.15 0 0 1-.15-.15v-1.472a.15.15 0 0 1 .15-.15h46.93a.15.15 0 0 1 .15.15v1.472a.15.15 0 0 1-.15.15z" fill="#4D4D4D"/><path fill="#FFF" d="M53.754 81.997H97.04v-1.604H53.754z"/><path d="M53.904 81.846h42.985v-1.302H53.904v1.302zm43.135.301H53.754a.15.15 0 0 1-.15-.15v-1.604a.15.15 0 0 1 .15-.15H97.04a.15.15 0 0 1 .15.15v1.604a.15.15 0 0 1-.15.15z" fill="#4D4D4D"/><path d="M34.389 83.319h81.63v-4.506h-81.63v4.506zm81.779.301H34.24a.15.15 0 0 1-.15-.15v-4.808a.15.15 0 0 1 .15-.15h81.928a.15.15 0 0 1 .15.15v4.807a.15.15 0 0 1-.15.151z" fill="#4D4D4D"/><path fill="#FFF" d="M55.983 80.32h4.54v-3.027h-4.54z"/><path d="M56.133 80.17h4.24v-2.726h-4.24v2.725zm4.39.3h-4.54a.15.15 0 0 1-.15-.15v-3.027a.15.15 0 0 1 .15-.15h4.54a.15.15 0 0 1 .149.15v3.027a.15.15 0 0 1-.15.15z" fill="#4D4D4D"/><path d="M56.55 77.143h3.405v-.754H56.55v.754zm3.555.301H56.4a.15.15 0 0 1-.15-.15v-1.056a.15.15 0 0 1 .15-.15h3.704a.15.15 0 0 1 .15.15v1.055a.15.15 0 0 1-.15.151z" fill="#4D4D4D"/><path d="M57.308 76.088h1.85V51.227h-1.85v24.86zm-.299.301h2.447V50.925h-2.447V76.39z" fill="#4D4D4D"/><path d="M56.53 50.925h3.405v-.753H56.53v.753zm3.555.302H56.38a.15.15 0 0 1-.15-.15V50.02a.15.15 0 0 1 .15-.15h3.704a.15.15 0 0 1 .149.15v1.055a.15.15 0 0 1-.15.15z" fill="#4D4D4D"/><path fill="#FFF" d="M61.576 80.32h4.54v-3.027h-4.54z"/><path d="M61.726 80.17h4.24v-2.726h-4.24v2.725zm4.39.3h-4.54a.15.15 0 0 1-.15-.15v-3.027a.15.15 0 0 1 .15-.15h4.54a.15.15 0 0 1 .149.15v3.027a.15.15 0 0 1-.15.15z" fill="#4D4D4D"/><path d="M62.143 77.143h3.405v-.754h-3.405v.754zm3.555.301h-3.704a.15.15 0 0 1-.15-.15v-1.056a.15.15 0 0 1 .15-.15h3.704a.15.15 0 0 1 .15.15v1.055a.15.15 0 0 1-.15.151z" fill="#4D4D4D"/><path d="M62.9 76.088h1.85V51.227H62.9v24.86zm-.298.301h2.447V50.925h-2.447V76.39z" fill="#4D4D4D"/><path d="M62.123 50.925h3.405v-.753h-3.405v.753zm3.554.302h-3.703a.15.15 0 0 1-.15-.15V50.02a.15.15 0 0 1 .15-.15h3.703a.15.15 0 0 1 .15.15v1.055a.15.15 0 0 1-.15.15z" fill="#4D4D4D"/><path fill="#FFF" d="M84.292 80.32h4.54v-3.027h-4.54z"/><path d="M84.442 80.17h4.24v-2.726h-4.24v2.725zm4.39.3h-4.54a.15.15 0 0 1-.15-.15v-3.027a.15.15 0 0 1 .15-.15h4.54a.15.15 0 0 1 .15.15v3.027a.15.15 0 0 1-.15.15z" fill="#4D4D4D"/><path d="M84.86 77.143h3.404v-.754H84.86v.754zm3.554.301H84.71a.15.15 0 0 1-.149-.15v-1.056a.15.15 0 0 1 .15-.15h3.703a.15.15 0 0 1 .149.15v1.055a.15.15 0 0 1-.15.151z" fill="#4D4D4D"/><path d="M85.617 76.088h1.85V51.227h-1.85v24.86zm2 .301h-2.15a.15.15 0 0 1-.148-.15V51.075a.15.15 0 0 1 .149-.15h2.148a.15.15 0 0 1 .15.15v25.162a.15.15 0 0 1-.15.151z" fill="#4D4D4D"/><path d="M84.839 50.925h3.405v-.753H84.84v.753zm3.555.302h-3.705a.15.15 0 0 1-.149-.15V50.02a.15.15 0 0 1 .15-.15h3.704a.15.15 0 0 1 .15.15v1.055a.15.15 0 0 1-.15.15z" fill="#4D4D4D"/><path fill="#FFF" d="M89.967 80.393h4.538v-3.026h-4.538z"/><path d="M90.116 80.243h4.24v-2.726h-4.24v2.726zm4.39.301h-4.54a.15.15 0 0 1-.149-.15v-3.027a.15.15 0 0 1 .15-.151h4.538a.15.15 0 0 1 .15.15v3.027a.15.15 0 0 1-.15.151z" fill="#4D4D4D"/><path d="M90.533 77.216h3.406v-.754h-3.406v.754zm3.555.301h-3.704a.15.15 0 0 1-.15-.15v-1.055a.15.15 0 0 1 .15-.151h3.704a.15.15 0 0 1 .15.15v1.056a.15.15 0 0 1-.15.15z" fill="#4D4D4D"/><path d="M91.29 76.161h1.85v-24.86h-1.85v24.86zm2 .301h-2.15a.15.15 0 0 1-.149-.15V51.15a.15.15 0 0 1 .15-.151h2.148a.15.15 0 0 1 .149.15v25.163a.15.15 0 0 1-.15.15z" fill="#4D4D4D"/><path d="M90.513 50.999h3.405v-.754h-3.405V51zm3.554.301h-3.703a.15.15 0 0 1-.15-.15v-1.055a.15.15 0 0 1 .15-.151h3.703a.15.15 0 0 1 .15.15v1.056a.15.15 0 0 1-.15.15z" fill="#4D4D4D"/><path fill="#FFF" d="M31.315 45.585h87.913v-1.332H31.315z"/><path d="M31.465 45.435h87.614v-1.031H31.465v1.03zm87.763.301H31.315a.15.15 0 0 1-.149-.15v-1.333a.15.15 0 0 1 .15-.15h87.912a.15.15 0 0 1 .15.15v1.332a.15.15 0 0 1-.15.151z" fill="#4D4D4D"/><path d="M119.228 44.257H31.315l14.677-9.524 55.21-.099 18.026 9.623" fill="#FFF"/><path d="M31.823 44.107h86.804l-17.462-9.322h-.255l-54.874.099-14.213 9.223zm87.405.301H31.315a.151.151 0 0 1-.08-.277l14.676-9.525a.148.148 0 0 1 .08-.024l55.211-.099a.15.15 0 0 1 .07.018l18.026 9.623c.06.033.091.103.075.17a.15.15 0 0 1-.145.114z" fill="#4D4D4D"/><path d="M49.015 39.946c.037 0 .074.014.103.041.09.088.192.161.3.22.332.177.666.177.888.147a.15.15 0 1 1 .04.299 1.752 1.752 0 0 1-1.067-.18 1.658 1.658 0 0 1-.265-.177c-.079.064-.163.12-.251.17a1.8 1.8 0 0 1-1.092.193.15.15 0 0 1-.13-.168.15.15 0 0 1 .167-.13c.23.028.574.024.912-.16.106-.059.204-.13.293-.214a.148.148 0 0 1 .102-.041m-3.7 0c.037 0 .074.014.102.041.091.088.193.161.301.22.331.177.665.177.887.147a.15.15 0 1 1 .04.299 1.752 1.752 0 0 1-1.067-.18 1.65 1.65 0 0 1-.264-.177c-.08.064-.163.12-.252.17a1.8 1.8 0 0 1-1.091.193.15.15 0 0 1-.13-.168.15.15 0 0 1 .167-.13c.23.028.573.024.912-.16a1.41 1.41 0 0 0 .292-.214.148.148 0 0 1 .102-.041m1.823 1.268c.037 0 .074.014.103.042.091.087.192.161.3.22.332.176.666.177.888.146a.15.15 0 1 1 .04.299 1.752 1.752 0 0 1-1.067-.18 1.66 1.66 0 0 1-.264-.176c-.08.064-.164.12-.252.169a1.8 1.8 0 0 1-1.092.194.15.15 0 0 1-.13-.168.15.15 0 0 1 .168-.131c.229.029.573.025.911-.16a1.42 1.42 0 0 0 .293-.214.148.148 0 0 1 .102-.04M59.42 37.49c.037 0 .074.014.103.041.09.088.192.161.3.22.332.177.666.177.888.147a.15.15 0 1 1 .04.299 1.752 1.752 0 0 1-1.067-.18 1.66 1.66 0 0 1-.265-.176c-.079.063-.163.12-.251.168a1.8 1.8 0 0 1-1.092.195.15.15 0 0 1-.13-.169.15.15 0 0 1 .167-.13c.23.029.574.024.912-.16a1.41 1.41 0 0 0 .293-.214.148.148 0 0 1 .102-.04m-3.7 0a.142.142 0 0 1 .102.04c.091.088.193.161.301.22.331.177.665.177.888.147a.15.15 0 1 1 .04.299 1.752 1.752 0 0 1-1.068-.18 1.665 1.665 0 0 1-.264-.176c-.08.063-.163.12-.252.168a1.8 1.8 0 0 1-1.091.195.15.15 0 0 1-.13-.169.15.15 0 0 1 .167-.13c.23.029.573.024.912-.16.105-.058.204-.13.292-.214a.148.148 0 0 1 .102-.04m1.823 1.268c.037 0 .074.014.103.041.091.088.192.161.3.22.332.177.666.177.888.147a.15.15 0 1 1 .04.299 1.752 1.752 0 0 1-1.067-.18 1.65 1.65 0 0 1-.264-.177c-.08.064-.164.12-.252.17a1.8 1.8 0 0 1-1.092.193.15.15 0 0 1-.13-.168.15.15 0 0 1 .168-.13c.229.028.573.024.911-.16a1.42 1.42 0 0 0 .293-.214.148.148 0 0 1 .102-.041m42.476 1.028a.148.148 0 0 0-.102.042 1.383 1.383 0 0 1-.3.22 1.457 1.457 0 0 1-.889.146.15.15 0 0 0-.04.299 1.75 1.75 0 0 0 1.068-.18c.093-.05.182-.109.264-.176.08.064.164.12.252.169a1.8 1.8 0 0 0 1.091.194.15.15 0 0 0-.036-.3 1.49 1.49 0 0 1-.912-.16 1.403 1.403 0 0 1-.293-.213.15.15 0 0 0-.103-.04m3.7 0a.148.148 0 0 0-.102.04 1.36 1.36 0 0 1-.3.22 1.457 1.457 0 0 1-.888.147.149.149 0 0 0-.168.129.15.15 0 0 0 .128.17 1.75 1.75 0 0 0 1.067-.18 1.67 1.67 0 0 0 .265-.176c.078.064.163.12.252.169a1.8 1.8 0 0 0 1.09.194.15.15 0 0 0 .13-.168.149.149 0 0 0-.166-.131c-.23.029-.574.025-.912-.16a1.403 1.403 0 0 1-.293-.214.15.15 0 0 0-.102-.04m-1.822 1.268a.149.149 0 0 0-.104.042 1.36 1.36 0 0 1-.3.219 1.455 1.455 0 0 1-.887.147.15.15 0 0 0-.168.129.15.15 0 0 0 .127.17 1.75 1.75 0 0 0 1.067-.18 1.67 1.67 0 0 0 .265-.176c.079.064.163.12.252.169a1.8 1.8 0 0 0 1.09.194.15.15 0 0 0 .13-.169.149.149 0 0 0-.166-.13 1.508 1.508 0 0 1-.912-.16 1.403 1.403 0 0 1-.292-.214.149.149 0 0 0-.102-.04m-12.283-3.724a.148.148 0 0 0-.102.041 1.36 1.36 0 0 1-.3.22 1.455 1.455 0 0 1-.888.146.15.15 0 0 0-.168.13.15.15 0 0 0 .127.17 1.76 1.76 0 0 0 1.067-.18c.094-.05.183-.11.265-.177.079.064.164.12.252.169a1.8 1.8 0 0 0 1.091.194.15.15 0 0 0 .13-.168.149.149 0 0 0-.167-.13 1.508 1.508 0 0 1-.912-.16 1.403 1.403 0 0 1-.292-.214.15.15 0 0 0-.103-.041m3.702 0a.149.149 0 0 0-.104.041 1.36 1.36 0 0 1-.3.22 1.455 1.455 0 0 1-.888.146.15.15 0 0 0-.168.13.15.15 0 0 0 .128.17c.265.036.666.034 1.068-.18a1.67 1.67 0 0 0 .264-.177c.08.064.163.12.251.169a1.8 1.8 0 0 0 1.092.194.15.15 0 0 0 .129-.168.149.149 0 0 0-.166-.13 1.508 1.508 0 0 1-.912-.16 1.403 1.403 0 0 1-.293-.214.149.149 0 0 0-.101-.041m-1.823 1.268a.148.148 0 0 0-.104.042 1.36 1.36 0 0 1-.3.22 1.454 1.454 0 0 1-.887.146.15.15 0 1 0-.04.299c.265.036.665.035 1.067-.18.093-.05.181-.108.264-.176.08.064.163.12.252.169a1.8 1.8 0 0 0 1.09.194.15.15 0 0 0-.036-.299 1.507 1.507 0 0 1-.912-.16 1.406 1.406 0 0 1-.293-.214.147.147 0 0 0-.101-.04M55.646 49.87H94.7v-1.366H55.646v1.366zm39.204.302H55.497a.15.15 0 0 1-.15-.15v-1.669a.15.15 0 0 1 .15-.15H94.85a.15.15 0 0 1 .149.15v1.668a.15.15 0 0 1-.15.15z" fill="#4D4D4D"/><path fill="#FFF" d="M53.778 48.504h42.894v-1.483H53.778z"/><path d="M53.927 48.353h42.596v-1.181H53.927v1.181zm42.745.302H53.778a.15.15 0 0 1-.15-.15V47.02a.15.15 0 0 1 .15-.15h42.894a.15.15 0 0 1 .15.15v1.483a.15.15 0 0 1-.15.15z" fill="#4D4D4D"/><path d="M98.124 47.021H52.142l23.011-10.423 22.97 10.423" fill="#FFF"/><path d="M52.84 46.87h44.588L75.153 36.763 52.84 46.87zm45.284.302H52.142a.151.151 0 0 1-.061-.288L75.093 36.46a.148.148 0 0 1 .122 0l22.97 10.424a.151.151 0 0 1-.061.288z" fill="#4D4D4D"/><path d="M93.586 47.011H56.821l18.399-8.334 18.366 8.334" fill="#FFF"/><path d="M57.518 46.86H92.89l-17.67-8.018-17.702 8.019zm36.068.302H56.821a.151.151 0 0 1-.061-.288l18.4-8.335a.149.149 0 0 1 .122 0l18.366 8.335a.151.151 0 0 1-.062.288zM34.39 64.75h2.832v-1.253H34.39v1.253zm2.982.301H34.24a.15.15 0 0 1-.15-.15v-1.555a.15.15 0 0 1 .15-.15h3.13a.15.15 0 0 1 .15.15v1.555a.15.15 0 0 1-.15.15zm-2.982 3.645h2.832v-1.253H34.39v1.253zm2.982.301H34.24a.15.15 0 0 1-.15-.15v-1.555a.15.15 0 0 1 .15-.15h3.13a.15.15 0 0 1 .15.15v1.555a.15.15 0 0 1-.15.15zm-2.982 3.645h2.832v-1.253H34.39v1.253zm2.982.301H34.24a.15.15 0 0 1-.15-.15v-1.555a.15.15 0 0 1 .15-.15h3.13a.15.15 0 0 1 .15.15v1.555a.15.15 0 0 1-.15.15zm-2.982 3.645h2.832v-1.253H34.39v1.253zm2.982.301H34.24a.15.15 0 0 1-.15-.15v-1.555a.15.15 0 0 1 .15-.15h3.13a.15.15 0 0 1 .15.15v1.555a.15.15 0 0 1-.15.15zM34.39 56.858h2.832v-1.253H34.39v1.253zm2.982.301H34.24a.15.15 0 0 1-.15-.15v-1.555a.15.15 0 0 1 .15-.15h3.13a.15.15 0 0 1 .15.15v1.555a.15.15 0 0 1-.15.15zm-2.982 3.645h2.832v-1.253H34.39v1.253zm2.982.301H34.24a.15.15 0 0 1-.15-.15V59.4a.15.15 0 0 1 .15-.15h3.13a.15.15 0 0 1 .15.15v1.555a.15.15 0 0 1-.15.15zM34.39 48.966h2.832v-1.253H34.39v1.253zm2.982.301H34.24a.15.15 0 0 1-.15-.15v-1.555a.15.15 0 0 1 .15-.15h3.13a.15.15 0 0 1 .15.15v1.555a.15.15 0 0 1-.15.15zm-2.982 3.645h2.832v-1.253H34.39v1.253zm2.982.301H34.24a.15.15 0 0 1-.15-.15v-1.555a.15.15 0 0 1 .15-.15h3.13a.15.15 0 0 1 .15.15v1.555a.15.15 0 0 1-.15.15zm75.815 11.508h2.832v-1.253h-2.832v1.253zm2.982.301h-3.131a.15.15 0 0 1-.15-.15v-1.555a.15.15 0 0 1 .15-.15h3.13a.15.15 0 0 1 .15.15v1.555a.15.15 0 0 1-.15.15zm-2.982 3.645h2.832v-1.253h-2.832v1.253zm2.982.301h-3.131a.15.15 0 0 1-.15-.15v-1.555a.15.15 0 0 1 .15-.15h3.13a.15.15 0 0 1 .15.15v1.555a.15.15 0 0 1-.15.15zm-2.982 3.645h2.832V71.36h-2.832v1.253zm2.982.301h-3.131a.15.15 0 0 1-.15-.15v-1.555a.15.15 0 0 1 .15-.15h3.13a.15.15 0 0 1 .15.15v1.555a.15.15 0 0 1-.15.15zm-2.982 3.645h2.832v-1.253h-2.832v1.253zm2.982.301h-3.131a.15.15 0 0 1-.15-.15v-1.555a.15.15 0 0 1 .15-.15h3.13a.15.15 0 0 1 .15.15v1.555a.15.15 0 0 1-.15.15zm-2.982-20.031h2.832v-1.253h-2.832v1.253zm2.982.301h-3.131a.15.15 0 0 1-.15-.15v-1.555a.15.15 0 0 1 .15-.15h3.13a.15.15 0 0 1 .15.15v1.555a.15.15 0 0 1-.15.15zm-2.982 3.645h2.832v-1.253h-2.832v1.253zm2.982.301h-3.131a.15.15 0 0 1-.15-.15V59.37a.15.15 0 0 1 .15-.15h3.13a.15.15 0 0 1 .15.15v1.555a.15.15 0 0 1-.15.15zm-2.982-12.139h2.832v-1.253h-2.832v1.253zm2.982.301h-3.131a.15.15 0 0 1-.15-.15v-1.555a.15.15 0 0 1 .15-.15h3.13a.15.15 0 0 1 .15.15v1.555a.15.15 0 0 1-.15.15zm-2.982 3.645h2.832V51.63h-2.832v1.253zm2.982.301h-3.131a.15.15 0 0 1-.15-.15v-1.555a.15.15 0 0 1 .15-.15h3.13a.15.15 0 0 1 .15.15v1.555a.15.15 0 0 1-.15.15z" fill="#4D4D4D"/><path d="M66.187 16.761c0-4.32 3.96-7.822 8.846-7.822 4.885 0 8.845 3.502 8.845 7.822" fill="#FFF"/><path d="M83.878 16.912a.15.15 0 0 1-.15-.15c0-4.23-3.9-7.672-8.695-7.672s-8.697 3.441-8.697 7.671a.15.15 0 0 1-.149.151.15.15 0 0 1-.15-.15c0-4.397 4.036-7.973 8.996-7.973 4.96 0 8.994 3.576 8.994 7.972a.15.15 0 0 1-.149.151" fill="#4D4D4D"/><path d="M75.206 10.446c4.019 0 7.277 2.804 7.277 6.262" fill="#FFF"/><path d="M82.483 16.86a.15.15 0 0 1-.149-.152c0-3.37-3.198-6.111-7.128-6.111a.15.15 0 0 1-.15-.15.15.15 0 0 1 .15-.152c4.095 0 7.427 2.877 7.427 6.413a.15.15 0 0 1-.15.151M74.44 8.79h1.185v-.892H74.44v.892zm1.335.3H74.29a.15.15 0 0 1-.15-.15V7.746a.15.15 0 0 1 .15-.15h1.484a.15.15 0 0 1 .149.15V8.94a.15.15 0 0 1-.15.15z" fill="#4D4D4D"/><path d="M75.187 7.746h-.308V.128a.1.1 0 0 1 .1-.1h.109a.1.1 0 0 1 .1.1v7.618" fill="#4D4D4D"/><path d="M75.182 2.108h2.261l-.571-.688.536-.556h-2.226v1.244zm2.9.301h-3.198V.563h3.233l-.843.872.808.974zm-7.104 60.08h1.666v-9.663h-1.666v9.663zm1.815.301H70.83a.15.15 0 0 1-.15-.15v-9.965a.15.15 0 0 1 .15-.15h1.964a.15.15 0 0 1 .15.15v9.965a.15.15 0 0 1-.15.15z" fill="#4D4D4D"/><path fill="#4D4D4D" d="M70.83 57.873h1.963v-.362H70.83zm3.486 4.616h1.666v-9.663h-1.666v9.663zm1.815.301h-1.965a.15.15 0 0 1-.15-.15v-9.965a.15.15 0 0 1 .15-.15h1.965a.15.15 0 0 1 .15.15v9.965a.15.15 0 0 1-.15.15z"/><path fill="#4D4D4D" d="M74.166 57.838h1.965v-.362h-1.965zm3.527 4.651h1.666v-9.663h-1.666v9.663zm1.816.301h-1.965a.15.15 0 0 1-.15-.15v-9.965a.15.15 0 0 1 .15-.15h1.965a.15.15 0 0 1 .149.15v9.965a.15.15 0 0 1-.15.15z"/><path fill="#4D4D4D" d="M77.544 57.838h1.965v-.362h-1.965zm-36.308 3.393h3.898v-9.923h-3.898v9.923zm4.048.302h-4.197a.15.15 0 0 1-.15-.15V51.157a.15.15 0 0 1 .15-.151h4.197a.15.15 0 0 1 .15.15v10.225a.15.15 0 0 1-.15.15z"/><path fill="#4D4D4D" d="M43.036 61.382h.313V51.158h-.313z"/><path fill="#4D4D4D" d="M41.09 56.427h4.19v-.311h-4.19zm7.866 4.804h3.898v-9.923h-3.898v9.923zm4.047.302h-4.197a.15.15 0 0 1-.15-.15V51.157a.15.15 0 0 1 .15-.151h4.197a.15.15 0 0 1 .15.15v10.225a.15.15 0 0 1-.15.15z"/><path fill="#4D4D4D" d="M50.756 61.382h.313V51.158h-.313z"/><path fill="#4D4D4D" d="M48.81 56.427H53v-.311h-4.19zm-7.574 18.405h3.898v-9.923h-3.898v9.923zm4.048.301h-4.197a.15.15 0 0 1-.15-.15V64.758a.15.15 0 0 1 .15-.15h4.197a.15.15 0 0 1 .15.15v10.225a.15.15 0 0 1-.15.15z"/><path fill="#4D4D4D" d="M43.036 74.983h.313V64.758h-.313z"/><path fill="#4D4D4D" d="M41.09 70.027h4.19v-.31h-4.19zm7.866 4.805h3.898v-9.923h-3.898v9.923zm4.047.301h-4.197a.15.15 0 0 1-.15-.15V64.758a.15.15 0 0 1 .15-.15h4.197a.15.15 0 0 1 .15.15v10.225a.15.15 0 0 1-.15.15z"/><path fill="#4D4D4D" d="M50.756 74.983h.313V64.758h-.313z"/><path fill="#4D4D4D" d="M48.81 70.027H53v-.31h-4.19zm48.587-8.721h3.899v-9.923h-3.899v9.923zm4.048.302h-4.197a.15.15 0 0 1-.15-.15V51.232a.15.15 0 0 1 .15-.151h4.197a.15.15 0 0 1 .15.15v10.225a.15.15 0 0 1-.15.15z"/><path fill="#4D4D4D" d="M99.198 61.457h.313V51.233h-.313z"/><path fill="#4D4D4D" d="M97.252 56.502h4.19v-.31h-4.19zm7.865 4.804h3.899v-9.923h-3.899v9.923zm4.048.302h-4.197a.15.15 0 0 1-.15-.15V51.232a.15.15 0 0 1 .15-.151h4.197a.15.15 0 0 1 .15.15v10.225a.15.15 0 0 1-.15.15z"/><path fill="#4D4D4D" d="M106.917 61.457h.313V51.233h-.313z"/><path fill="#4D4D4D" d="M104.971 56.502h4.191v-.31h-4.19zm-7.574 18.405h3.899v-9.923h-3.899v9.923zm4.048.301h-4.197a.15.15 0 0 1-.15-.15V64.833a.15.15 0 0 1 .15-.15h4.197a.15.15 0 0 1 .15.15v10.225a.15.15 0 0 1-.15.15z"/><path fill="#4D4D4D" d="M99.198 75.058h.313V64.833h-.313z"/><path fill="#4D4D4D" d="M97.252 70.102h4.19v-.31h-4.19zm7.865 4.805h3.899v-9.923h-3.899v9.923zm4.048.301h-4.197a.15.15 0 0 1-.15-.15V64.833a.15.15 0 0 1 .15-.15h4.197a.15.15 0 0 1 .15.15v10.225a.15.15 0 0 1-.15.15z"/><path fill="#4D4D4D" d="M106.917 75.058h.313V64.833h-.313z"/><path fill="#4D4D4D" d="M104.971 70.102h4.191v-.31h-4.19z"/><path fill="#FFF" d="M69.408 80.393h11.598V65.518H69.408z"/><path d="M69.558 80.243h11.299V65.668h-11.3v14.575zm11.448.301H69.408a.15.15 0 0 1-.149-.15V65.517a.15.15 0 0 1 .15-.15h11.597a.15.15 0 0 1 .15.15v14.875a.15.15 0 0 1-.15.151z" fill="#4D4D4D"/><path fill="#4D4D4D" d="M75.111 80.393h.285V65.518h-.285zm-.913-4.577h-.062a.109.109 0 0 1-.108-.11v-4.784c0-.06.049-.109.108-.109h.062c.06 0 .109.05.109.11v4.783a.11.11 0 0 1-.109.11m2.158 0h-.063a.11.11 0 0 1-.108-.11v-4.784c0-.06.048-.109.108-.109h.063c.06 0 .107.05.107.11v4.783c0 .06-.047.11-.107.11M71.2 77.15h1.665v-9.663H71.2v9.663zm1.815.301H71.05a.15.15 0 0 1-.149-.15v-9.965a.15.15 0 0 1 .15-.15h1.964a.15.15 0 0 1 .149.15V77.3a.15.15 0 0 1-.15.151z"/><path fill="#4D4D4D" d="M71.051 72.5h1.965v-.363H71.05zm6.601 4.65h1.666v-9.663h-1.666v9.663zm1.815.301h-1.964a.15.15 0 0 1-.15-.15v-9.965a.15.15 0 0 1 .15-.15h1.964a.15.15 0 0 1 .15.15V77.3a.15.15 0 0 1-.15.151z"/><path fill="#4D4D4D" d="M77.503 72.5h1.964v-.363h-1.964z"/><path fill="#FFF" d="M64.545 34.662h21.064V33.04H64.545z"/><path d="M64.694 34.512H85.46V33.19H64.694v1.322zm20.915.301H64.545a.15.15 0 0 1-.15-.15v-1.624a.15.15 0 0 1 .15-.15h21.064a.15.15 0 0 1 .15.15v1.623a.15.15 0 0 1-.15.151z" fill="#4D4D4D"/><path fill="#FFF" d="M66.187 33.04h17.691V17.564h-17.69z"/><path d="M66.336 32.888H83.73V17.716H66.336v15.172zm17.542.302h-17.69a.15.15 0 0 1-.15-.15V17.564a.15.15 0 0 1 .15-.15h17.69a.15.15 0 0 1 .15.15V33.04a.15.15 0 0 1-.15.15z" fill="#4D4D4D"/><path fill="#FFF" d="M64.545 20.301h21.064v-1.623H64.545z"/><path d="M64.694 20.15H85.46v-1.32H64.694v1.322zm20.915.302H64.545a.15.15 0 0 1-.15-.15v-1.624a.15.15 0 0 1 .15-.15h21.064a.15.15 0 0 1 .15.15v1.623a.15.15 0 0 1-.15.151zM66.336 31.269h2.833v-1.253h-2.833v1.253zm2.982.302h-3.13a.15.15 0 0 1-.15-.151v-1.555a.15.15 0 0 1 .15-.15h3.13a.15.15 0 0 1 .15.15v1.555a.15.15 0 0 1-.15.15zm-2.982-8.194h2.833v-1.253h-2.833v1.253zm2.982.301h-3.13a.15.15 0 0 1-.15-.15v-1.555a.15.15 0 0 1 .15-.15h3.13a.15.15 0 0 1 .15.15v1.555a.15.15 0 0 1-.15.15zm-2.982 3.645h2.833V26.07h-2.833v1.253zm2.982.301h-3.13a.15.15 0 0 1-.15-.15v-1.555a.15.15 0 0 1 .15-.15h3.13a.15.15 0 0 1 .15.15v1.555a.15.15 0 0 1-.15.15zm11.55 3.645H83.7v-1.253h-2.832v1.253zm2.981.302h-3.13a.15.15 0 0 1-.15-.151v-1.555a.15.15 0 0 1 .15-.15h3.13a.15.15 0 0 1 .15.15v1.555a.15.15 0 0 1-.15.15zm-2.981-8.194H83.7v-1.253h-2.832v1.253zm2.981.301h-3.13a.15.15 0 0 1-.15-.15v-1.555a.15.15 0 0 1 .15-.15h3.13a.15.15 0 0 1 .15.15v1.555a.15.15 0 0 1-.15.15zm-2.981 3.645H83.7V26.07h-2.832v1.253zm2.981.301h-3.13a.15.15 0 0 1-.15-.15v-1.555a.15.15 0 0 1 .15-.15h3.13a.15.15 0 0 1 .15.15v1.555a.15.15 0 0 1-.15.15zm-8.816-4.82c-2.024 0-3.67 1.662-3.67 3.704 0 2.042 1.646 3.703 3.67 3.703 2.023 0 3.67-1.661 3.67-3.703s-1.647-3.703-3.67-3.703zm0 7.708c-2.188 0-3.968-1.796-3.968-4.004 0-2.208 1.78-4.005 3.968-4.005C77.22 22.503 79 24.3 79 26.508s-1.78 4.004-3.968 4.004z" fill="#4D4D4D"/><path d="M77.782 26.508c0-1.533-1.231-2.775-2.75-2.775-1.518 0-2.749 1.242-2.749 2.775 0 1.532 1.231 2.775 2.75 2.775 1.518 0 2.75-1.243 2.75-2.775" fill="#FFF"/><path d="M75.033 23.883c-1.434 0-2.6 1.178-2.6 2.625s1.166 2.624 2.6 2.624c1.433 0 2.6-1.177 2.6-2.624s-1.167-2.625-2.6-2.625zm0 5.55c-1.599 0-2.9-1.312-2.9-2.925 0-1.614 1.301-2.926 2.9-2.926s2.899 1.312 2.899 2.926c0 1.613-1.3 2.926-2.9 2.926z" fill="#4D4D4D"/><path d="M75.087 26.665h-.108a.096.096 0 0 1-.095-.096v-2.2c0-.053.042-.096.095-.096h.108c.052 0 .095.043.095.096v2.2a.096.096 0 0 1-.095.096" fill="#4D4D4D"/><path d="M77.254 26.452v.124c0 .049-.04.089-.088.089h-2.195a.089.089 0 0 1-.087-.09v-.123c0-.049.04-.089.087-.089h2.195a.09.09 0 0 1 .088.09" fill="#4D4D4D"/><path d="M1.417 68.402c0-3.469 2.787-6.28 6.224-6.28 3.437 0 6.223 2.811 6.223 6.28 0 3.468-2.786 6.28-6.223 6.28s-6.224-2.812-6.224-6.28" fill="#F7CD5C"/><path d="M6.837 62.136c-3.35 0-6.074 2.75-6.074 6.13 0 3.379 2.724 6.129 6.074 6.129 3.349 0 6.073-2.75 6.073-6.13s-2.724-6.13-6.073-6.13zm0 12.56c-3.514 0-6.373-2.885-6.373-6.43 0-3.547 2.859-6.432 6.373-6.432 3.513 0 6.372 2.885 6.372 6.431 0 3.546-2.859 6.431-6.372 6.431z" fill="#4D4D4D"/><path d="M6.893 83.556H6.78a.095.095 0 0 1-.094-.095V65.818c0-.053.042-.096.094-.096h.113c.052 0 .095.043.095.096V83.46a.095.095 0 0 1-.095.095" fill="#4D4D4D"/><path d="M6.925 73.095l-.08.081a.094.094 0 0 1-.133 0l-2.47-2.491a.096.096 0 0 1 0-.135l.08-.08a.094.094 0 0 1 .134 0l2.47 2.49a.096.096 0 0 1 0 .135m0-2.813l-.08.081a.094.094 0 0 1-.134 0l-2.47-2.491a.096.096 0 0 1 0-.135l.08-.08a.094.094 0 0 1 .134 0l2.47 2.49a.096.096 0 0 1 0 .135" fill="#4D4D4D"/><path d="M6.781 73.095l.08.081a.094.094 0 0 0 .134 0l2.469-2.491a.096.096 0 0 0 0-.135l-.08-.08a.094.094 0 0 0-.134 0l-2.469 2.49a.096.096 0 0 0 0 .135" fill="#4D4D4D"/><path d="M18.126 63.883c0-5.976 2.786-10.82 6.223-10.82s6.223 4.844 6.223 10.82-2.786 10.821-6.223 10.821-6.223-4.845-6.223-10.82" fill="#F7CD5C"/><path d="M23.545 52.932c-3.349 0-6.074 4.819-6.074 10.742 0 5.924 2.725 10.743 6.074 10.743 3.35 0 6.074-4.82 6.074-10.743s-2.725-10.742-6.074-10.742zm0 21.786c-3.514 0-6.372-4.954-6.372-11.044 0-6.09 2.858-11.044 6.372-11.044s6.373 4.955 6.373 11.044c0 6.09-2.86 11.044-6.373 11.044z" fill="#4D4D4D"/><path d="M23.605 83.578h-.136a.095.095 0 0 1-.095-.095V59.308c0-.052.042-.095.095-.095h.136c.052 0 .094.043.094.095v24.175a.095.095 0 0 1-.094.095" fill="#4D4D4D"/><path d="M23.402 71.488l.08.08a.094.094 0 0 0 .133 0l2.47-2.49a.096.096 0 0 0 0-.136l-.08-.08a.094.094 0 0 0-.134 0l-2.47 2.491a.096.096 0 0 0 0 .135m.063-5.89l.08.08a.094.094 0 0 0 .134 0l2.468-2.49a.096.096 0 0 0 0-.135l-.08-.081a.094.094 0 0 0-.133 0l-2.469 2.491a.096.096 0 0 0 0 .135m.208 2.839l-.08.08a.094.094 0 0 1-.134 0l-2.469-2.491a.096.096 0 0 1 0-.135l.08-.08a.094.094 0 0 1 .134 0l2.469 2.49a.096.096 0 0 1 0 .136" fill="#4D4D4D"/><path d="M129.14 79.394c-.49-.824-1.716-1.094-2.665-.878-1.383.316-1.539 1.52-2.866 1.618-.673.049-1.48-.199-1.633-.668-.127-.388.287-.634.355-1.378.067-.734-.26-1.318-.348-1.47-.435-.754-1.378-1.452-2.197-1.266-1.173.268-1.39 2.07-2.189 2.004-.479-.04-.454-.692-1.255-1.125-.81-.437-1.94-.367-2.27.176-.2.328.05.564-.122.844-.44.708-2.296-.435-3.162.422-.345.341-.509.977-.453 1.476.06.538.348.68.266.985-.16.588-1.486.993-2.124.492-.384-.301-.25-.718-.73-1.09-.054-.042-.576-.436-1.094-.281-.759.226-.754 1.406-1.338 1.476-.4.049-.493-.494-1.152-.632-.553-.117-1.248.106-1.402.527-.144.395.315.719.122 1.055-.218.38-.855.265-1.095.632-.122.188-.147.508.238 1.092h26.382c.186-.159.42-.414.444-.749.036-.496-.42-.818-.282-1.12.097-.216.36-.129.58-.333.375-.347.322-1.252-.01-1.809" fill="#F8D066"/><path d="M101.517 83.309h26.25c.216-.21.33-.423.338-.634.009-.202-.079-.372-.164-.536-.1-.193-.203-.393-.103-.608.082-.173.237-.216.362-.251.091-.026.178-.05.254-.118.294-.264.275-1.05-.037-1.558-.356-.578-1.391-1.028-2.507-.782-.626.139-.99.468-1.342.787-.396.358-.805.729-1.546.781-.735.052-1.605-.213-1.785-.748-.085-.25.014-.452.118-.665.094-.19.2-.406.23-.731.041-.435-.075-.907-.327-1.33-.407-.682-1.301-1.318-2.037-1.155-.554.122-.887.635-1.182 1.087-.298.459-.58.893-1.05.855-.303-.025-.449-.23-.604-.447-.155-.216-.33-.46-.709-.658-.746-.39-1.794-.33-2.077.117-.074.118-.061.216-.046.34.016.134.037.3-.075.477-.259.403-.84.32-1.456.234-.619-.088-1.322-.187-1.729.202-.292.279-.462.826-.407 1.302.027.224.1.368.164.496.077.15.156.306.097.515-.08.283-.385.54-.818.688-.435.147-1.099.201-1.539-.132-.215-.163-.291-.352-.365-.534-.075-.183-.144-.355-.364-.52-.052-.04-.52-.377-.964-.249-.333.097-.502.421-.664.735-.166.323-.34.657-.698.699-.26.03-.424-.119-.582-.263-.156-.143-.318-.29-.616-.352-.504-.102-1.114.104-1.234.417-.049.13.007.259.073.408.078.18.176.404.038.636-.143.24-.403.309-.632.37-.204.053-.38.1-.462.241-.101.173-.033.477.197.884zm26.308.301h-26.394a.15.15 0 0 1-.128-.073c-.332-.56-.41-.973-.24-1.265.145-.249.41-.319.644-.38.199-.053.37-.098.45-.233.057-.094.018-.193-.055-.36-.076-.174-.17-.391-.078-.637.193-.505.982-.724 1.571-.604.38.077.59.27.759.423.148.137.225.201.346.187.202-.023.326-.262.468-.538.183-.353.39-.754.846-.886.57-.164 1.12.218 1.225.297.287.215.38.444.462.647.068.165.12.295.269.408.325.246.869.221 1.263.087.33-.112.575-.302.627-.484.025-.092-.005-.157-.076-.296a1.634 1.634 0 0 1-.195-.598c-.065-.572.139-1.212.498-1.556.512-.49 1.29-.379 1.977-.282.519.074 1.008.143 1.163-.098.05-.08.046-.15.03-.276-.02-.147-.042-.33.09-.54.37-.584 1.567-.692 2.466-.223.443.231.657.53.814.75.149.209.228.31.385.322.297.025.518-.32.777-.72.326-.5.695-1.067 1.368-1.216.876-.192 1.886.506 2.357 1.294.284.478.416 1.016.369 1.514-.036.38-.16.634-.26.837-.1.204-.146.308-.103.434.113.338.806.591 1.481.545.638-.046.977-.351 1.367-.706.363-.328.774-.7 1.478-.856.965-.213 2.282.036 2.824.917.36.585.43 1.54-.017 1.942a.854.854 0 0 1-.374.183c-.116.033-.151.048-.171.09-.035.075.014.178.098.34.093.18.21.404.198.687-.012.308-.174.605-.48.884a.146.146 0 0 1-.099.04z" fill="#4D4D4D"/><path d="M120.995 82.463a.152.152 0 0 1-.141-.2c.165-.473.182-.797.05-.94-.119-.127-.342-.118-.578-.11-.266.01-.566.021-.781-.172-.216-.193-.159-.443-.113-.644.043-.184.064-.303-.012-.402-.21-.275-.958-.306-1.51-.061-.33.146-.484.345-.621.521-.139.179-.281.363-.564.404-.394.056-.664-.218-.925-.483-.256-.262-.522-.532-.93-.533h-.003c-.607 0-1.038.508-1.042.513-.474.568-.304 1.296-.283 1.377a.15.15 0 0 1-.29.076c-.04-.158-.213-.978.344-1.647.021-.025.527-.62 1.27-.62h.006c.53.001.855.33 1.14.622.263.267.436.43.672.396.156-.022.233-.115.37-.29.15-.195.337-.436.735-.612.62-.274 1.539-.279 1.868.153.167.22.112.461.067.655-.046.196-.057.282.019.35.125.112.342.104.572.096.279-.01.595-.023.806.205.22.236.224.643.014 1.245a.148.148 0 0 1-.14.1M.137 83.652C.062 83.65 0 83.583 0 83.5c0-.083.062-.15.137-.15h148.726c.075 0 .137.067.137.15 0 .083-.062.15-.137.15H.137z" fill="#4D4D4D"/></g></svg>