<svg height="61" width="77" xmlns="http://www.w3.org/2000/svg"><g fill="none" fill-rule="evenodd"><path d="m76.328 47.929c0-20.894-17.087-37.832-38.164-37.832-21.078 0-38.164 16.938-38.164 37.832s17.086 5.732 38.164 5.732c21.077 0 38.164 15.162 38.164-5.732z" fill="#007aa1" fill-opacity=".08"/><g fill="#bfc3c4"><text><tspan x="16.627" y="52.5"/></text><path d="m31.245 36.67c0 4.119 3.106.828 6.937.828 3.83 0 6.936 3.29 6.936-.829 0-4.118-3.105-7.458-6.936-7.458s-6.937 3.34-6.937 7.458zm14.315-10.683c1.65 0 2.988-1.36 2.988-3.038s-1.337-3.038-2.988-3.038c-1.65 0-2.988 1.36-2.988 3.038s1.338 3.038 2.988 3.038zm-17.525-3.075c0 1.737 1.384 3.145 3.092 3.145 1.709 0 3.093-1.408 3.093-3.145s-1.384-3.145-3.093-3.145c-1.708 0-3.092 1.408-3.092 3.145z"/></g></g></svg>