<?xml version="1.0" encoding="UTF-8"?>
<svg width="30px" height="19px" viewBox="0 0 30 19" version="1.1" xmlns="http://www.w3.org/2000/svg" xmlns:xlink="http://www.w3.org/1999/xlink">
    <title>personal-meeting</title>
    <g id="Page-1" stroke="none" stroke-width="1" fill="none" fill-rule="evenodd">
        <path d="M16.514014,19.0046191 C17.2640122,19.0046191 17.9718505,18.6764949 18.4546527,18.0858896 L19.4811852,16.8249368 C20.2499517,17.2421416 21.4921363,17.2468108 22.2936785,16.2624381 L22.73899,15.7140386 C23.0296234,15.357762 23.1890164,14.935888 23.2311763,14.5093448 L25.5093233,14.5093448 C25.5139925,15.3296553 26.1842943,15.9952879 27.0046048,15.9952879 L29.6295985,15.9952879 C29.8358664,15.9952879 30.0045977,15.8265108 30.0045977,15.6202888 L30.0045977,14.8702906 C30.0045977,14.6640228 29.8358664,14.4952915 29.6295985,14.4952915 L27.0046048,14.4952915 L27.0046048,5.50936625 L29.6295985,5.49998212 C29.8358664,5.49998212 30.0045977,5.33125083 30.0045977,5.12498301 L30.0045977,4.3749848 C29.9999285,4.1640478 29.8311972,3.99998569 29.6249294,3.99998569 L24.3046296,4.00936983 L21.9046261,1.67029459 C21.4780829,1.24375142 20.9155843,1.00937698 20.3155949,1.00937698 L15.5812312,1.00937698 C15.093714,1.00937698 14.6390184,1.19216158 14.2546352,1.47812586 C13.8609136,1.17343909 13.3781114,0.995323669 12.8812101,0.995323669 L9.6234054,0.995323669 C9.02808516,0.995323669 8.45624815,1.23436729 8.03437416,1.65624128 L5.69062974,3.99998569 L0.374999106,3.99998569 C0.168731287,3.99998569 0,4.16871698 0,4.3749848 L0,5.12498301 C0,5.33125083 0.168731287,5.49998212 0.374999106,5.49998212 L3,5.49998212 L3,14.4952915 L0.374999106,14.4952915 C0.168731287,14.4952915 0,14.6640228 0,14.8702906 L0,15.6202888 C0,15.8265108 0.168731287,15.9952879 0.374999106,15.9952879 L3,15.9952879 C3.82497257,15.9952879 4.49060514,15.3296553 4.49532009,14.5093448 L6.05152976,14.5093448 L9.87183315,18.1655861 C11.2687414,19.2952526 13.2374867,19.262431 14.6061969,18.1562019 L14.9437052,18.4468354 C15.3937316,18.8124504 15.9421312,19.0046191 16.514014,19.0046191 Z M10.8703049,17.0405888 L6.65623413,13.0046334 L4.49998927,13.0046334 L4.49998927,5.49532009 L6.30934165,5.49532009 L9.08905914,2.71559545 C9.22968381,2.57497078 9.42185254,2.49532009 9.61873622,2.49532009 L12.876541,2.49532009 C12.9187009,2.59840823 12.8905943,2.52809589 12.928085,2.6312298 L10.1624666,5.1718579 C8.84058561,6.38593582 8.77498823,8.41560932 9.96558293,9.71405288 C10.6359305,10.4452828 12.7124788,11.5562268 14.5077779,9.91089079 L15.5765162,8.93123309 L21.4640296,13.7077567 C21.7827697,13.9702836 21.8296446,14.4437016 21.5718327,14.7624417 L21.1265213,15.3108871 C20.8733786,15.6202888 20.4046297,15.6906011 20.0718363,15.4186902 L19.2374724,14.7437192 L17.2921646,17.1343385 C16.9406029,17.5702658 16.3077919,17.6124716 15.9140246,17.2936857 L14.4796713,16.0702694 L13.9921541,16.6702588 C13.2093344,17.631194 11.7890344,17.7812028 10.8703049,17.0405888 Z M25.4999392,13.0046334 L22.8186864,13.0046334 C22.7014992,12.8405713 22.5702587,12.6812242 22.4061966,12.5452687 L16.6921294,7.90465473 L18.0233945,6.68123846 C18.3280813,6.39998913 18.3515187,5.92652529 18.0702694,5.62183852 C17.7890201,5.31715174 17.315602,5.29842925 17.0109153,5.57496363 L13.4905837,8.79999256 C12.8156128,9.41403529 11.6812313,9.36249122 11.0671428,8.69685865 C10.4296626,8.00311946 10.4718683,6.9156129 11.1702767,6.27341777 L15.0656074,2.70154214 C15.2062321,2.57497078 15.3843475,2.50465845 15.571847,2.50465845 L20.3062107,2.50465845 C20.5077636,2.50465845 20.6952632,2.58435491 20.840557,2.72969453 L23.6858719,5.49998212 L25.4999392,5.49998212 L25.4999392,13.0046334 Z M0.749998212,12.9905837 C1.16248807,12.9905837 1.5,12.6530718 1.5,12.2405819 C1.5,11.828092 1.16248807,11.4905837 0.749998212,11.4905837 C0.337508351,11.4905837 0,11.828092 0,12.2405819 C0,12.6577867 0.337508351,12.9905837 0.749998212,12.9905837 Z M29.2499303,12.9952986 C29.6624201,12.9952986 29.9999321,12.6577867 29.9999321,12.2452968 C29.9999321,11.828092 29.6624201,11.4952986 29.2499303,11.4952986 C28.8374404,11.4952986 28.4999321,11.8327612 28.4999321,12.2452968 C28.4999321,12.6577867 28.8374404,12.9952986 29.2499303,12.9952986 Z" id="personal-meeting" fill="#464547" fill-rule="nonzero"></path>
    </g>
</svg>