<svg width="16" height="15" xmlns="http://www.w3.org/2000/svg"><g transform="rotate(180 8 7.5)" fill="none"><path d="M3.13 7.165a.348.348 0 1 0 0 .696.348.348 0 0 0 0-.696z" fill="#464547"/><path d="M16 6.47c0-.768-.624-1.392-1.391-1.392h-2.597c.402-1.03.565-2.241.533-3.32a3.961 3.961 0 0 0-.024-.4A1.393 1.393 0 0 0 11.13 0c-.768 0-1.392.624-1.392 1.391v.348c0 2.2-2.825 3.436-4.957 3.966a1.045 1.045 0 0 0-.956-.627H.348A.348.348 0 0 0 0 5.426v8.348c0 .192.156.348.348.348h3.478c.425 0 .79-.255.953-.62l.492.128c1.214.317 1.883.492 3.51.492h3.74a1.393 1.393 0 0 0 1.157-2.165 1.392 1.392 0 0 0 .698-2.088 1.392 1.392 0 0 0 .693-2.086c.537-.188.931-.701.931-1.313zM4.174 13.078a.348.348 0 0 1-.348.348H.696V5.774h3.13c.192 0 .348.156.348.348v6.956zm10.435-5.913h-1.74a.348.348 0 0 0 0 .696h1.044a.696.696 0 0 1 0 1.391h-1.74a.348.348 0 0 0 0 .696h1.044a.696.696 0 0 1 0 1.391h-1.739a.348.348 0 0 0 0 .696h1.044a.696.696 0 0 1 0 1.391h-3.74c-1.538 0-2.139-.157-3.335-.47l-.577-.149V6.401c2.517-.6 5.565-2.063 5.565-4.662v-.348a.696.696 0 0 1 1.391 0c0 .151.189 2.007-.568 3.687h-1.171a.348.348 0 0 0 0 .696h4.522a.696.696 0 0 1 0 1.391z" fill-opacity=".8" fill="#E0245E"/><path d="M3.13 8.557a.348.348 0 0 0-.347.347v2.783a.348.348 0 0 0 .695 0V8.904a.348.348 0 0 0-.348-.347z" fill="#464547"/></g></svg>