<svg width="16" height="17" xmlns="http://www.w3.org/2000/svg"><g fill="none"><path d="M10.6 0a.331.331 0 0 0-.33.331v1.524a.331.331 0 0 0 .662 0V.331A.331.331 0 0 0 10.6 0z" fill="#36BB1C"/><path d="M2.981 10.335a.331.331 0 1 0 0 .663.331.331 0 0 0 0-.663z" fill="#464547"/><path d="M15.238 9.673c0-.73-.594-1.325-1.325-1.325H11.44c.383-.98.538-2.135.508-3.163a3.773 3.773 0 0 0-.023-.38A1.327 1.327 0 0 0 10.6 3.51c-.73 0-1.325.595-1.325 1.325v.332c0 2.095-2.69 3.272-4.72 3.777a.995.995 0 0 0-.911-.597H.33A.331.331 0 0 0 0 8.679v7.95c0 .183.148.332.331.332h3.313a.995.995 0 0 0 .908-.59l.468.121c1.156.302 1.794.469 3.343.469h3.562a1.327 1.327 0 0 0 1.101-2.062 1.325 1.325 0 0 0 .665-1.988 1.326 1.326 0 0 0 .66-1.987c.512-.18.887-.668.887-1.251zM3.975 15.967a.332.332 0 0 1-.331.331H.663V9.01h2.98c.184 0 .332.149.332.332v6.625zm9.938-5.632h-1.656a.331.331 0 0 0 0 .663h.994a.663.663 0 0 1 0 1.325h-1.657a.331.331 0 0 0 0 .663h.994a.663.663 0 1 1 0 1.325h-1.656a.331.331 0 0 0 0 .662h.993a.663.663 0 0 1 0 1.325H8.363c-1.464 0-2.036-.15-3.176-.447l-.55-.142V9.607c2.398-.57 5.3-1.964 5.3-4.44v-.33a.663.663 0 0 1 1.326-.002v.001c0 .144.18 1.911-.54 3.512H9.606a.331.331 0 0 0 0 .662h4.306a.663.663 0 0 1 0 1.325z" fill="#36BB1C"/><path d="M2.981 11.66a.331.331 0 0 0-.33.332v2.65a.331.331 0 0 0 .662 0v-2.65a.331.331 0 0 0-.332-.332z" fill="#464547"/><path d="M7.95 4.174H6.625a.331.331 0 0 0 0 .662H7.95a.331.331 0 0 0 0-.662zm6.626 0H13.25a.331.331 0 0 0 0 .662h1.325a.331.331 0 0 0 0-.662zm-.93-2.714a.331.331 0 0 0-.47 0l-.936.937a.331.331 0 0 0 .469.468l.936-.936c.13-.13.13-.34 0-.469zm-4.685.937l-.937-.937a.331.331 0 0 0-.469.469l.937.936a.331.331 0 0 0 .469-.468z" fill="#36BB1C"/></g></svg>