<svg width="245" height="239" xmlns="http://www.w3.org/2000/svg" xmlns:xlink="http://www.w3.org/1999/xlink"><defs><path id="a" d="M117.226 199.142L0 167.762V0l117.226 27.619v171.523"/></defs><g fill="none" fill-rule="evenodd"><path d="M190.792 29.75L63.488.11C62.41-.2 61.441.164 60.77.982l-.004-.004-7.046 5.47 6.093 14.702v162.044c0 2.749 1.652 5.473 3.675 6.052l111.106 31.848 10.978 9.936 7.152-5.432-.027-.05c1.059-.577 1.77-1.955 1.77-3.757V35.802c0-2.75-1.652-5.472-3.675-6.052" fill="#2E8387"/><path d="M183.386 231.504L56.253 197.558c-2.018-.54-3.673-3.233-3.673-5.986V9.242c0-2.753 1.655-4.565 3.673-4.026L183.39 35.243c2.015.54 3.67 3.233 3.67 5.986v186.249c0 2.753-1.655 4.565-3.674 4.026" fill="#80B3B5"/><use fill="#FFF" xlink:href="#a" transform="translate(61.698 18.778)"/><path d="M101.465 164.853C52.542 123.363-4.26 198.391-4.26 198.391s-10.42 6.813-9.483 24.769c.01.194.024.392.04.592 8.41-.37 31.5-2.959 48.947-19.727 21.72-20.875 35.55 3.638 62.722 3.897 27.171.258 73.147 31.447 90.26 28.979 17.114-2.469 24.06-2.143 24.06-2.143l11.395-64.547c-20.565-15.625-73.293 36.132-122.216-5.358" fill="#FBECBB"/><path d="M108.399 187.484c-19.735 4.439-17.094 16.843-47.668 19.193-29.246 2.248-33.287 15.035-35.71 20.283 13.075 3.63 29.349 3.678 43.589-5.708 57.786-38.088 70.027 12.383 144.246-7.26l-1.557-7.311c-38.937 11.695-72.283-26.084-102.9-19.197" fill="#FFD02A" opacity=".496"/><path d="M109.06 85.086l29.631 7.71a.855.855 0 0 0 1.044-.597.838.838 0 0 0-.608-1.026l-29.631-7.71a.855.855 0 0 0-1.044.597.838.838 0 0 0 .608 1.026m-.133 11.42l39.392 10.38a.674.674 0 0 0 .824-.485.677.677 0 0 0-.481-.828l-39.392-10.38a.675.675 0 0 0-.824.485.677.677 0 0 0 .481.828m-11.054.972l-19.862-5.26L78 70l19.862 5.26.01 22.218" fill="#2E8387"/><path d="M109.06 122.45l29.631 7.71a.855.855 0 0 0 1.044-.597.838.838 0 0 0-.608-1.026l-29.631-7.71a.855.855 0 0 0-1.044.597.838.838 0 0 0 .608 1.026m-.133 11.42l39.392 10.38a.674.674 0 0 0 .824-.485.677.677 0 0 0-.481-.828l-39.392-10.38a.675.675 0 0 0-.824.485.677.677 0 0 0 .481.828m-11.188.608l-19.862-5.26-.01-22.218 19.861 5.26.011 22.218" fill="#2E8387" opacity=".416"/><text transform="rotate(7 62 508.596)" font-family="LucidaGrande, Lucida Grande" font-size="12" fill="#FFF"><tspan x="32" y="88">#</tspan></text><path d="M54.195 223.712c-7.64-2.359-20.501-2.269-28.72.2-1.4.421-2.573.885-3.522 1.375-5.355-.942-12.53-.673-17.398.79-5.775 1.734-6.102 4.484-.732 6.141 5.16 1.592 13.699 1.592 19.48.05.356.132.731.26 1.132.384 7.645 2.358 20.502 2.269 28.72-.2 8.217-2.469 8.684-6.382 1.04-8.74" fill="#BCD5D7"/><path d="M46.737 116.275c-.102 3.593-3.414 5.725-6.112 4.083-2.705-1.643-4.811-5.888-4.71-9.482.104-3.593 2.375-5.176 5.074-3.532 2.7 1.643 5.847 5.337 5.748 8.93" fill="#EB8962"/><path d="M38.028 127.675l-.37-.097c-1.24-.326-1.993-1.626-1.67-2.888l1.81-7.115c.32-1.262 1.598-2.027 2.838-1.7l.369.096c1.24.327 1.994 1.626 1.671 2.888l-.75 7.098c-.321 1.261-2.658 2.043-3.898 1.718" fill="#EB8962"/><path d="M34.417 120.015s.675 2.483 5.125 1.975c3.36-.384.949-6.24 4.026-7.692 4.156-1.961 2.518-6.098.679-7.45-1.84-1.35-4.176-.57-7.054.409-3.042 1.035-7.186 3.43-2.776 12.758" fill="#000"/><path d="M43.246 225.976c-.02 1.842-4.503 1.788-4.484-.055l.075-5.988 4.484.054-.075 5.989" fill="#DEDFE6"/><path d="M44.467 220.529c-1.582 2.136-5.512 2.1-6.357.653-.492-8.539-3.379-17.63-.08-29.37L34.205 156.2l15.955 3.18-3.542 37.594-2.15 23.554" fill="#1F2020"/><path d="M11.466 218.965c-1.035 1.378-4.905-1.142-3.87-2.52l3.363-4.478 3.87 2.52-3.363 4.478" fill="#DEDFE6"/><path d="M16.352 215.103c-2.216 1.313-5.205-2.37-5.511-3.867 2.668-7.406 4.42-18.1 11.381-22.323l2.956-19.91c-.249-3.056.32-5.486 1.593-9.957l11.421 6.678-10.184 30.052a7.525 7.525 0 0 1-.727 1.55l-10.929 17.777" fill="#1F2020"/><path d="M25.086 161.708c.39-8.91 1.746-14.732 1.304-22.435.171-14.72 2.036-15.35 5.323-16.283l3.288-.362c1.021.192 1.968.656 2.977.9 4.226 1.021 6.937 1.248 9.974 2.872 2.704 1.446 2.863 5.31 2.855 8.547.731 9.489.926 23.772 1.061 28.455-1.538 6.705-24.21 2.845-26.782-1.694" fill="#F7CD5C"/><path d="M50.728 136.285l-2.4 2.67c-2.825 11.73-1.515 23.622-6.147 28.627 2.833-.009 5.43-.392 7.349-1.846.104.013.987-.798 1.118-2.26l.08-27.191" fill="#E8B048"/><path d="M68.963 129.958s-2.01 12.177-4.176 15.39c-2.162 3.212-7.79-1.156-7.79-1.156l7.065-15.874 4.9 1.64" fill="#EB8962"/><path d="M44.316 137.463l14.15 10.137c3.043 2.866 10.48-4.732 6.506-7.775-.25-.192-16.927-13.214-16.927-13.214s-5.734 5.595-3.73 10.852" fill="#F7CD5C"/><path d="M11.696 218.894l.066 4.149c.959 2.876 3.16 3.216 2.304 4.358l-.724.619c-.724.72-3.14.498-3.641-.133l-4.25-6.311c-.672-1.498-.197-3.368.936-4.383 0 0 1.26-1.226 1.898-1.242 1.523-.042 2.874 1.745 3.411 2.943" fill="#000"/><path d="M34.319 122.707s-.784 2.243 1.737 3.078c2.526.835 6.695-.635 6.695-.635s-2.778-3.046-8.432-2.443" fill="#FFF"/><path d="M64.935 130.639c1.189.895 2.866.615 3.723-.622l2.08-2.99c.861-1.237.591-2.98-.598-3.875s-2.863-.615-3.723.621l-2.08 2.99c-.857 1.238-.591 2.981.598 3.876" fill="#EB8962"/><path d="M41.398 223.916l4.543.753c3.324-.446 4.992-1.027 6.072.105l.304.32c.402.788-.229 2.051-1.451 2.521l-9.042 3.572c-1.767.414-3.62-.188-3.632-1.751 0 0 .012-4.37.817-4.544 1.62-.347.977-.644 2.39-.976" fill="#000"/><path d="M155.106 51.81l-51.79-13.184c-1.652-.42-3.004.582-3.004 2.226v12.076c0 1.645 1.352 3.334 3.003 3.755l51.79 13.184c1.653.42 3.002-.582 3.002-2.226V55.565c0-1.644-1.35-3.334-3.001-3.755" fill="#BCD5D7" opacity=".382"/><path d="M147.047 52.824L96.165 39.64c-1.623-.42-2.951.581-2.951 2.226v12.076c0 1.645 1.328 3.334 2.95 3.755l50.883 13.184c1.623.42 2.948-.582 2.948-2.226V56.579c0-1.644-1.325-3.334-2.948-3.755" stroke="#2E8387" fill="#FFFCFA"/><path d="M98.208 47.011l.712 1.603a.628.628 0 0 0 .344.326l1.665.646a.61.61 0 0 1 .141 1.066l-.918.66a.61.61 0 0 0-.249.595l.186 1.117c.092.552-.555.928-1.007.583l-1.13-.865a.64.64 0 0 0-.557-.107l-1.378.38c-.446.122-.87-.253-.788-.7l.28-1.55a.602.602 0 0 0-.13-.494l-1.01-1.22c-.351-.425-.003-1.054.552-.998l1.045.105a.63.63 0 0 0 .612-.313l.505-.887a.634.634 0 0 1 1.125.053" fill="#FF884D"/><path d="M109.361 49.04l.714 1.602a.616.616 0 0 0 .344.326l1.663.645a.609.609 0 0 1 .141 1.067l-.918.66a.614.614 0 0 0-.249.595l.188 1.117c.091.552-.557.928-1.007.583l-1.132-.865a.638.638 0 0 0-.557-.107l-1.378.38c-.445.122-.868-.253-.788-.7l.281-1.55a.61.61 0 0 0-.132-.494l-1.008-1.22c-.352-.425-.004-1.054.553-.998l1.043.105a.629.629 0 0 0 .612-.313l.505-.887a.634.634 0 0 1 1.125.053" fill-opacity=".9" fill="#FF884D"/><path d="M121.528 52.08l.714 1.604c.065.149.19.266.344.326l1.663.645c.46.178.54.781.142 1.067l-.919.66a.608.608 0 0 0-.247.595l.186 1.117c.092.552-.557.927-1.006.583l-1.133-.865a.638.638 0 0 0-.557-.107l-1.377.38c-.446.122-.869-.254-.788-.7l.28-1.55a.616.616 0 0 0-.13-.494l-1.01-1.22c-.351-.425-.003-1.054.554-.998l1.042.105a.633.633 0 0 0 .614-.313l.504-.887c.252-.445.918-.414 1.124.053" fill-opacity=".8" fill="#FF884D"/><path d="M132.682 55.123l.714 1.603a.617.617 0 0 0 .344.325l1.662.646c.46.178.54.78.142 1.067l-.918.66a.608.608 0 0 0-.247.595l.185 1.117c.092.552-.556.927-1.006.583l-1.132-.865a.638.638 0 0 0-.557-.107l-1.378.38c-.445.122-.868-.254-.788-.7l.281-1.55a.609.609 0 0 0-.13-.495l-1.01-1.219c-.352-.425-.004-1.054.553-.998l1.043.105a.633.633 0 0 0 .614-.313l.503-.888a.634.634 0 0 1 1.125.054" fill-opacity=".7" fill="#FF884D"/><path d="M142.821 57.15l.714 1.603c.067.15.19.267.344.326l1.665.646a.61.61 0 0 1 .14 1.067l-.919.66a.609.609 0 0 0-.247.594l.186 1.118c.092.552-.557.927-1.006.583l-1.133-.865a.638.638 0 0 0-.557-.107l-1.377.379c-.446.123-.869-.253-.788-.7l.28-1.55a.602.602 0 0 0-.13-.494l-1.01-1.219c-.351-.425-.003-1.054.554-.998l1.042.105a.633.633 0 0 0 .614-.313l.505-.888a.633.633 0 0 1 1.123.054" fill-opacity=".5" fill="#FF884D"/><path d="M201 229.547c0 4.721 9.775 8.548 21.836 8.548 12.062 0 21.841-3.827 21.841-8.548 0-4.72-9.78-8.547-21.84-8.547-12.062 0-21.837 3.827-21.837 8.547" fill="#BCD5D7"/><g><path fill="#EB8962" d="M208.015 133.31l-9.195 19.528 3.71 4.074 12.751-21.014-7.266-2.588"/><path d="M208.663 146.82l-5.461-3.285s-.217 3.462 2.122 4.187c2.343.725 3.339-.903 3.339-.903" fill="#DD6C40"/><path d="M232.484 232.957l-.19-9.441c.221-.891 1.41-1.075 2.359-1.909.427-.374 1.031-.411 1.45-.107l.897.658c1.332.9 1.403 1.168 1.11 2.343l-1.726 6.982c-.293 1.176-1.344 2.445-2.34 2.822l-.28.106c-.996.376-1.569-.278-1.28-1.454" fill="#000"/><path d="M235.325 221.828s-.514 6.024-1.988 6.391c0 0-.944.234-.976-1.292-.028-1.526-.423-4.481-.423-4.481l3.387-.618" fill="#EB8962"/><path d="M208.663 146.82s-4.529.117-5.461-3.285l1.395-2.817 5.887 3.112-1.821 2.99" fill="#FFF"/><path d="M229.739 111.517s6.903 1.354 8.598 4.004c1.691 2.65-1.304 9.188-1.304 9.188v-3.415s3.987-6.568-7.021-8.007c-7.393-.967-.273-1.77-.273-1.77" fill="#000"/><path d="M229.87 111.718s11.383 7.39 7.163 14.548c-4.22 7.157-15.659 10.24-15.659 10.24l-4.65-24.041 13.145-.747m-18.2 117.396l7.034-4.95c.897-.365 2.801-.413 4.054-.178.561.106.933.555.897 1.06l-.075 1.093c-.044 1.574-.237 1.79-1.423 2.27l-7.037 2.848c-1.181.48-2.873.425-3.754-.122l-.249-.155c-.88-.546-.632-1.386.554-1.866" fill="#000"/><path d="M223.05 224.297c-.084 2.189-4.52 2.976-4.604.755-5.382-20.606-6.073-39.467-7.104-61.26l13.58-11.46c-1.094 18.915-2.817 34.93-2.481 51.262.047 2.117 1.098 4.358 1.217 6.394.24 4.225-.972 10.196-.609 14.309" fill="#EB8962"/><path d="M220.999 210.168c-.115-2.035-1.17-4.276-1.213-6.393-.111-5.404.004-10.774.245-16.226.462-10.38 3.145-11.174 2.655-.15-.241 5.451-.356 10.821-.245 16.226.043 2.116 1.098 4.358 1.213 6.393.245 4.226-.968 10.196-.605 14.31-.063 1.67-1.805-9.934-2.05-14.16" fill="#DD6C40"/><path d="M235.31 220.826c.482 1.92-2.24 3.776-3.457 2.051-3.663-7.565-6.346-13.392-8.84-19.109-1.888-4.33-2.295-9.506-3.085-14.702-1.893-12.395 10.882-15.522 10.246-2.924-.261 5.148-.166 10.332.466 15.47.304 2.486 1.719 2.364 2.537 6.541.833 4.243.995 6.611 2.133 12.673" fill="#EB8962"/><path d="M211.843 125.87l-8.523 15.257s2.09 6.88 9.705 3.782c10.55-4.29-1.182-19.04-1.182-19.04" fill="#E8B048"/><path d="M229.893 154.825c5.907.117.04 23.556 2.375 40.408 0 0-12.32 11.364-22.756 1.412l.387-38.74 19.994-3.08" fill="#3D3D3D"/><path d="M223.014 200.226c6.974-10.08 3.038-32.636 4.809-44.161l2.07-1.24c5.907.117.04 23.555 2.375 40.408 0 0-3.944 3.635-9.254 4.993" fill="#000"/><path d="M210.172 156.794c-.344-4.145 1.644 4.125 1.569-.671-.032-1.844-.92-7.127-1.367-10.62-.415-3.265-3.817-5.205-3.114-9.183.09-2.171 3.916-6.191 4.082-7.777.264-2.507.438-4.823 5.697-7.29l2.312.503c1.102.239 2.17.597 3.173 1.063 10.716 4.978 13.055 5.221 12.308 11.517-.122 3.237-2.043.717-2.623 2.861-1.11 4.113-5.441 8.3-3.916 15.513.308 1.456 1.446 2.447.154 3.413-5.607 4.184-16.307 4.988-18.275.67" fill="#F7CD5C"/><path d="M209.824 156.76c-.008.157-.015-.01 0 0" fill="#FF5CAB"/><path d="M228.992 135.534l2.245 7.811-1.344 11.48-3.686 1.298v-9.91c1.56-3.096 2.224-6.852 2.785-10.679" fill="#E8B048"/><path d="M198.152 159.581l2.023 1.156c.992.564 2.264.536 2.83-.062l.398-.42c.565-.6.222-1.551-.77-2.116l-2.023-1.156c-.992-.564-2.264-.536-2.83.063l-.398.419c-.565.599-.222 1.552.77 2.116" fill="#EB8962"/><path d="M219.825 159.465l.06-.431-.72.207-.106-.276-15.995-8.215c-.194-.099-.561-.09-.814.019l-7.915 3.375.012-.096-1.434.43-.067.458h.007c.012.045.048.087.115.12l16.647 8.549c.19.099.557.09.814-.018l9.167-3.91c.138-.06.217-.137.23-.212" fill="#BFC6C9"/><path d="M209.67 163.148l-16.647-8.548c-.19-.1-.138-.27.115-.378l9.167-3.91c.257-.109.624-.117.818-.018l16.643 8.548c.193.1.142.27-.115.379l-9.167 3.91c-.253.108-.62.116-.814.017" fill="#DDE5E8"/><path d="M211.693 157.781l-4.03-2.069c-.043-.024-.032-.064.028-.091l2.22-.946a.27.27 0 0 1 .198-.005l4.026 2.07c.048.023.036.064-.027.09l-2.217.947a.27.27 0 0 1-.198.004" fill="#BFC6C9"/><path d="M218.908 159.538c5.967-.236 11.313-1.86 16.126-4.673 1.296-.757 2.114-2.126 2.145-3.578.071-3.327.032-9.232-1.09-10.193l-5.157 5.925.245 3.3c-5.626 2.485-8.586 5.428-12.02 6.475l-.249 2.744" fill="#EB8962"/><path d="M234.492 154.121c1.166-.948 1.593-2.901 1.624-4.353.048-2.346.044-5.971-.36-8.244l.38-.433c1.122.961 1.162 6.867 1.09 10.193-.03 1.452-.849 2.821-2.145 3.578-4.813 2.813-10.159 4.437-16.125 4.674 0 0 10.538-1.342 15.536-5.415" fill="#DD6C40"/><path d="M228.293 125.465s-3.932 9.45-9.645 6.988c-5.714-2.461-1.573-11.01-1.573-11.01s5.93 1.225 11.218 4.022" fill="#EB8962"/><path d="M221.659 127.286l-.38.076c-1.28.258-2.461-.522-2.623-1.734l-.925-6.832c-.166-1.212.747-2.415 2.027-2.673l.38-.076c1.28-.258 2.461.522 2.623 1.734l1.908 6.36c.166 1.212-1.73 2.887-3.01 3.145" fill="#EB8962"/><path d="M209.157 154.178c-.076-.365-.443-.815-.818-1.004l-17.596-8.83c-.154-.079-.288-.1-.387-.073l-.004.001-.09.049-.581.435.529-.003 1.695 8.447c.075.364.443.814.818 1.003l16.635 8.35.537.5.068.118c.34.077 1.142-.313 1.142-.313l-1.948-8.68" fill="#FFF"/><path d="M208.406 150.745c-.075-.364-.439-.814-.818-1.003l-17.591-8.83c-.158-.08-.293-.1-.392-.073l-.004.001-.086.048-.581.435.53-.002 1.694 8.446c.071.365.439.815.818 1.004l16.635 8.35.538.5.067.118c.336.077 1.138-.313 1.138-.313l-1.948-8.68" fill="#FFF"/><path d="M189.436 141.372l17.59 8.83c.38.19.748.64.819 1.004l1.715 8.54.004.017.683 3.418c.075.365-.174.506-.553.316l-17.591-8.83c-.38-.19-.743-.64-.818-1.003l-1.715-8.54v-.018l-.688-3.418c-.075-.365.174-.506.554-.316" fill="#464547"/><path d="M199.842 153.552c.02.622-.565.823-1.304.45-.739-.372-1.351-1.179-1.37-1.8-.02-.622.564-.824 1.303-.45.74.372 1.352 1.178 1.371 1.8" fill="#FFF"/><path d="M221.856 225.842s-5.03 2.057-5.939 1.455c-.77-.509 2.952-2.947 2.952-2.947l2.987 1.492" fill="#DD6C40"/><path d="M227.202 124.94s-3.465 9.744-9.167 7.157c-4.425-2.007-1.217-10.067-1.217-10.067l-1.193.23s-3.821 9.463 2.643 12.107c5.686 2.326 10.452-8.696 10.452-8.696l-1.518-.73" fill="#FFF"/><path d="M218.268 122.244s3.126-.06 5.287-3.02c0 0-2.153 4.471-5.026 4.962l-.26-1.942" fill="#DD6C40"/><path d="M227.127 144.532s-4.078 3.644-6.942 3.028c0 0 5.07 1.8 6.942 1.16 1.873-.639 0-4.188 0-4.188m-17.702-1.035s.036.054.103.146c.32.452 1.36 1.812 2.422 2.151l-1.983.113" fill="#E8B048"/><path d="M236.061 150.57l-4.884-.25s1.92 2.347 4.825 1.498l.06-1.248" fill="#DD6C40"/><path d="M237.286 149.973s-2.41 1.873-6.109.347l-.213-2.67 6.322-.45v2.773" fill="#FFF"/><path d="M228.66 135.277l1.695 11.163c.245 1.602 1.427 2.754 2.885 2.814 2.161.087 4.943-.31 4.95-2.925.013-7.231-1.568-12.867-2.812-16.178-.538-1.438-1.992-1.847-3.719-2.966-.28-.18-.17 1.487-.482 1.72-1.888 1.426-2.888 3.948-2.517 6.372" fill="#F7CD5C"/><path d="M220.623 157.686a1.955 1.955 0 0 1-1.588 2.253l-3.67.629a1.961 1.961 0 0 1-2.253-1.594 1.955 1.955 0 0 1 1.588-2.253l3.671-.629a1.959 1.959 0 0 1 2.252 1.594m3.707-49.358c-1.087-1.75-2.747-2.058-4.284-1.05-1.505-.614-3.327.289-4.67 2.579-1.873 3.188-1.683 7.615-.518 10.395.633 1.506 1.375 2.555 4.971 1.926 2.434-.468 3.805-1.184 5.184-3.535 1.87-3.188.901-7.763-.683-10.315" fill="#EB8962"/><path d="M215.171 113.461c.259-.095.507-.13.765-.102.108.011.199-.147.197-.337v-.002c0-.163-.069-.299-.16-.317a1.37 1.37 0 0 0-.886.12c-.09.045-.149.201-.139.363.015.19.116.315.223.275m3.773-.001a6.582 6.582 0 0 1 1.53-.123c.215.008.4-.15.401-.335v-.003c0-.159-.135-.29-.316-.304a5.388 5.388 0 0 0-1.771.144c-.18.046-.301.2-.28.357v.002c.022.186.223.304.437.262" fill="#60402C"/><path d="M220.471 114.575c.046.435-.092.825-.306.87-.214.045-.423-.27-.467-.706-.044-.435.092-.825.306-.87.214-.045.423.27.467.706m-4.741.615c.045.326-.093.618-.307.652-.212.034-.421-.203-.467-.529-.044-.326.093-.619.307-.653.214-.034.423.203.467.53" fill="#40291B"/><path d="M216.623 115.178l-.043.231c-.08.431-.256 1.37-.396 1.955a1.74 1.74 0 0 0-.05.393c0 .157.03.3.085.417.085.177.22.289.37.354.15.066.318.09.49.091.04 0 .08-.001.12-.004.07-.004.123-.08.12-.168-.004-.088-.064-.156-.133-.152a1.626 1.626 0 0 1-.107.003c-.203.001-.389-.042-.509-.13a.41.41 0 0 1-.135-.16.57.57 0 0 1-.05-.25c0-.084.012-.183.041-.3.19-.802.442-2.207.443-2.209.015-.086-.028-.172-.094-.192-.069-.02-.137.035-.152.121" fill="#BF6D3F"/><path d="M222.09 116.438s-3.68 1.454-5.94-3.509c0 0-.806-1.702-.462-2.425.344-.721 6.401 5.934 6.401 5.934" fill="#DD6C40"/><path d="M215.815 111.088c4.322 6.703 6.84 4.778 6.942 5.826l.731 2.786c.439 2.08 2.545 1.235 4.568 1.909l.008.002s6.638-7.705-1.616-13.895c-5.584-4.189-13.309-.064-12.475 5.447l1.842-2.075" fill="#000"/><path d="M224.887 117.793c-.455.775-1.45 1.1-2.22.726-.775-.374-1.032-1.306-.578-2.08.455-.776 1.45-1.101 2.225-.727.77.374 1.027 1.306.573 2.081" fill="#EB8962"/><path d="M223.22 117.209c-.186-.136-.198-.408-.028-.58.245-.244.62-.475.9.002.281.483-.023 1.1-.292 1.496-.051.071-.158.027-.138-.055.063-.253.063-.546-.186-.696a3.53 3.53 0 0 1-.257-.167" fill="#DD6C40"/><path d="M216.395 120.732c-.64-.25-1.153-1.274-1.153-2.288l2.307.905c0 1.014-.517 1.633-1.154 1.383" fill="#FFF"/></g></g></svg>