<?xml version="1.0" encoding="UTF-8"?>
<svg width="24px" height="22px" viewBox="0 0 24 22" version="1.1" xmlns="http://www.w3.org/2000/svg" xmlns:xlink="http://www.w3.org/1999/xlink">
    <title>scholorship</title>
    <g id="Page-1" stroke="none" stroke-width="1" fill="none" fill-rule="evenodd">
        <path d="M8.24998033,21.4999464 C12.8062286,21.4999464 16.4999607,19.8218345 16.4999607,17.7499553 L16.4999607,16.9811888 C20.7046473,16.8077884 23.9999428,15.204658 23.9999428,13.249966 L23.9999428,4.24998748 C23.9999428,2.51561662 21.0890305,0.499996424 15.7499624,0.499996424 C13.4718612,0.499996424 11.4093661,0.921870418 9.91403886,1.59688712 C9.87183315,1.61560961 7.49998212,2.58125977 7.49998212,4.24998748 L7.49998212,5.03280727 C3.56716068,5.19686938 0,6.65937505 0,8.74997675 L0,17.7499553 C0,19.8218345 3.69373204,21.4999464 8.24998033,21.4999464 Z M15.7499624,6.49998212 C15.4077849,6.49998212 15.093714,6.47654467 14.770259,6.45777641 C13.0406031,5.44062795 10.7858935,5.13594118 9.3515402,5.05152976 C9.05623756,4.80310201 8.87812214,4.53590599 8.87812214,4.24998748 C8.87812214,3.00780294 11.9577657,1.99999285 15.7546316,1.99999285 C19.5514976,1.99999285 22.6311869,3.00780294 22.6311869,4.24998748 C22.6311869,5.49217202 19.5468284,6.49998212 15.7499624,6.49998212 Z M16.4999607,10.9624806 L16.4999607,8.74997675 C16.4999607,8.48749569 16.4202642,8.23435298 16.3077919,7.98592523 C18.8671425,7.90622877 21.107753,7.30623935 22.4999464,6.40156316 L22.4999464,8.74997675 C22.4999464,9.36401948 20.3859072,10.7843652 16.4999607,10.9624806 Z M8.24998033,10.9999714 C4.45311438,10.9999714 1.37342507,9.99216129 1.37342507,8.74997675 C1.37342507,7.50779222 4.45311438,6.49998212 8.24998033,6.49998212 C12.0468463,6.49998212 15.1265356,7.50779222 15.1265356,8.74997675 C15.1265356,9.99216129 12.0468463,10.9999714 8.24998033,10.9999714 Z M8.24998033,15.4999607 C3.86717828,15.4999607 1.49999642,13.9015524 1.49999642,13.249966 L1.49999642,10.9015524 C2.99060871,11.8671568 5.4562553,12.4999678 8.24998033,12.4999678 C11.0437054,12.4999678 13.5093519,11.8671568 14.9999642,10.9015524 L14.9999642,13.249966 C14.9999642,13.9015524 12.6327824,15.4999607 8.24998033,15.4999607 Z M16.4999607,15.4671391 L16.4999607,12.4624771 C18.9749456,12.3593431 21.1452438,11.7780762 22.4999464,10.9015524 L22.4999464,13.249966 C22.4999464,13.8640088 20.3905764,15.2936928 16.4999607,15.4671391 Z M8.24998033,19.9999499 C3.86717828,19.9999499 1.49999642,18.4015417 1.49999642,17.7499553 L1.49999642,15.4015417 C2.99060871,16.3671461 5.4562553,16.9999571 8.24998033,16.9999571 C11.0437054,16.9999571 13.5093519,16.3671461 14.9999642,15.4015417 L14.9999642,17.7499553 C14.9999642,18.4015417 12.6327824,19.9999499 8.24998033,19.9999499 Z" id="scholorship" fill="#464547" fill-rule="nonzero"></path>
    </g>
</svg>