<?xml version="1.0" encoding="UTF-8"?>
<svg width="24px" height="22px" viewBox="0 0 24 22" version="1.1" xmlns="http://www.w3.org/2000/svg" xmlns:xlink="http://www.w3.org/1999/xlink">
    <title>university</title>
    <g id="Page-1" stroke="none" stroke-width="1" fill="none" fill-rule="evenodd">
        <path d="M21.9374477,7.99997854 C22.2480854,7.99997854 22.4999464,7.74811757 22.4999464,7.43747988 L22.4999464,6.87498122 L23.4374441,6.87498122 C23.7480818,6.87498122 23.9999428,6.62312025 23.9999428,6.31248257 L23.9999428,5.90072512 C23.9999428,5.66722043 23.8557018,5.45802293 23.6374406,5.3749848 L12.7114718,0.615444147 C12.5202643,0.551723595 12.2015243,0.499996424 11.9999714,0.499996424 C11.7984185,0.499996424 11.4796784,0.551723595 11.288471,0.615444147 L0.362502187,5.3749848 C0.187425167,5.44159498 0.041192195,5.63024037 0.00736953051,5.81975756 L0,5.90072512 L0,6.31248257 C0,6.62312025 0.251860972,6.87498122 0.562498659,6.87498122 L1.5,6.87498122 L1.5,7.43747988 C1.5,7.74811757 1.7518574,7.99997854 2.06249508,7.99997854 L21.9374477,7.99997854 Z M20.9999499,6.49998212 L2.99999285,6.49998212 L2.99999285,5.86218152 L11.8098168,2.02452892 C11.8614067,2.01097915 11.9465963,1.99999285 11.9999714,1.99999285 C12.0533465,1.99999285 12.1385361,2.01097915 12.190126,2.02452892 L20.9999499,5.86218152 L20.9999499,6.49998212 Z M23.6249437,21.4999464 C23.8319439,21.4999464 23.9999428,21.3319475 23.9999428,21.1249472 L23.9999428,20.7499481 C23.9999428,20.3357188 23.6641739,19.9999499 23.2499446,19.9999499 L22.4999464,19.9999499 L22.4999464,18.1249544 C22.4999464,17.5036333 21.9962702,16.9999571 21.374949,16.9999571 L19.4999535,16.9999571 L19.4999535,8.74997675 L17.9999571,8.74997675 L17.9999571,16.9999571 L14.9999642,16.9999571 L14.9999642,8.74997675 L13.4999678,8.74997675 L13.4999678,16.9999571 L10.499975,16.9999571 L10.499975,8.74997675 L8.99997854,8.74997675 L8.99997854,16.9999571 L5.99998569,16.9999571 L5.99998569,8.74997675 L4.49998927,8.74997675 L4.49998927,16.9999571 L2.62499374,16.9999571 C2.00367259,16.9999571 1.5,17.5036333 1.5,18.1249544 L1.5,19.9999499 L0.749998212,19.9999499 C0.335768853,19.9999499 0,20.3357188 0,20.7499481 L0,21.1249472 C0,21.3319475 0.167998867,21.4999464 0.374999106,21.4999464 L23.6249437,21.4999464 Z M20.9999499,19.9999535 L2.99999285,19.9999535 L2.99999285,18.4999535 L20.9999499,18.4999535 L20.9999499,19.9999535 Z" id="university" fill="#464547" fill-rule="nonzero"></path>
    </g>
</svg>